<svg xmlns="http://www.w3.org/2000/svg" viewBox="0 0 60 60"><defs><style>.cls-1{fill:#fff782;}.cls-2{fill:#0050c8;}.cls-3{fill:#f39237;}</style></defs><title>icone-compras-e-contratos</title><g id="Layer_4" data-name="Layer 4"><circle class="cls-1" cx="16.18" cy="43.82" r="16.18"/><path class="cls-2" d="M34.63,52.48H10.45V7.39H37.27v6.09a.73.73,0,0,0,.73.73h6.82a.71.71,0,0,0,.25,0l.06,0a.72.72,0,0,0,.16-.11l0,0v0a.7.7,0,0,0,.14-.21h0v0a.71.71,0,0,0,0-.23.46.46,0,0,0,0-.07.67.67,0,0,0,0-.18l0-.07a.73.73,0,0,0-.14-.21L38.51,6.15A.69.69,0,0,0,38.29,6l-.07,0-.18,0H9.72A.73.73,0,0,0,9,6.67V53.21a.73.73,0,0,0,.73.73H34.63a.73.73,0,0,0,0-1.46Zm8.43-39.73H38.72V8.42Z"/><path class="cls-2" d="M44.08,23.67v7.73a.73.73,0,0,0,1.45,0V23.67a.73.73,0,0,0-1.45,0Z"/><path class="cls-2" d="M28.68,12.76H14.9a.73.73,0,1,0,0,1.45H28.68a.73.73,0,1,0,0-1.45Z"/><path class="cls-2" d="M25.81,18.89a.73.73,0,0,0,.73.73h8a.73.73,0,0,0,0-1.46h-8A.73.73,0,0,0,25.81,18.89Z"/><path class="cls-2" d="M14.9,19.62h7.27a.73.73,0,0,0,0-1.46H14.9a.73.73,0,0,0,0,1.46Z"/><path class="cls-2" d="M40.36,29.7a.73.73,0,0,0-.73-.73H28.72a.73.73,0,0,0,0,1.46H39.63A.73.73,0,0,0,40.36,29.7Z"/><path class="cls-2" d="M36,35.1a.73.73,0,0,0-.73-.73H28a.73.73,0,1,0,0,1.45h7.27A.73.73,0,0,0,36,35.1Z"/><path class="cls-2" d="M14.9,35.83h8.73a.73.73,0,0,0,0-1.45H14.9a.73.73,0,0,0,0,1.45Z"/><path class="cls-2" d="M14.9,41.24h5.82a.73.73,0,1,0,0-1.46H14.9a.73.73,0,0,0,0,1.46Z"/><path class="cls-2" d="M32.35,40.51a.73.73,0,0,0-.73-.73H25.08a.73.73,0,0,0,0,1.46h6.54A.73.73,0,0,0,32.35,40.51Z"/><path class="cls-2" d="M14.9,46.64H28.72a.73.73,0,0,0,0-1.46H14.9a.73.73,0,0,0,0,1.46Z"/><path class="cls-3" d="M44.81,35a9.45,9.45,0,1,0,9.45,9.46A9.47,9.47,0,0,0,44.81,35Zm0,17.45a8,8,0,1,1,8-8A8,8,0,0,1,44.81,52.48Z"/><path class="cls-3" d="M44.81,43.76c-1.1,0-1.63-.46-1.63-1.42a1.54,1.54,0,0,1,1.63-1.42,1.64,1.64,0,0,1,1.53.93.73.73,0,0,0,1.34-.56,3,3,0,0,0-2.15-1.74V39a.73.73,0,1,0-1.45,0v.54a2.92,2.92,0,0,0-2.36,2.78,2.76,2.76,0,0,0,3.09,2.87c1.09,0,1.64.48,1.64,1.42A1.54,1.54,0,0,1,44.82,48a1.65,1.65,0,0,1-1.53-.93.73.73,0,0,0-1.34.56,3,3,0,0,0,2.14,1.73V50a.73.73,0,0,0,1.45,0v-.54a2.92,2.92,0,0,0,2.37-2.78A2.8,2.8,0,0,0,44.81,43.76Z"/><path class="cls-3" d="M39.23,17.06l-4.3,6.6-6-1.46a.73.73,0,0,0-.75.26l-3.61,4.71-4.9-2.83a.73.73,0,0,0-.9.14l-4.36,4.73a.73.73,0,1,0,1.07,1l4-4.3,5,2.86a.73.73,0,0,0,.94-.19L29,23.73l6.09,1.46a.73.73,0,0,0,.78-.31l4.28-6.57,7,2.14a.73.73,0,0,0,.73-.18l6.18-6.18a.73.73,0,1,0-1-1l-5.87,5.87-7.1-2.17A.73.73,0,0,0,39.23,17.06Z"/></g></svg>