<svg xmlns="http://www.w3.org/2000/svg" viewBox="0 0 60 60"><defs><style>.cls-1{fill:#fff782;}.cls-2{fill:#0050c8;}.cls-3{fill:#f39237;}</style></defs><title>icone-gestao-estrategica-de-projetos</title><g id="Layer_4" data-name="Layer 4"><circle class="cls-1" cx="16.18" cy="43.82" r="16.18"/><path class="cls-2" d="M52.09,18.25a.57.57,0,0,0,0-.2L52,18a.73.73,0,0,0-.14-.22h0L43.47,9.35v0a.47.47,0,0,0-.21-.14s0,0-.08,0a.51.51,0,0,0-.19,0s0,0,0,0H16.61a.77.77,0,0,0-.75.76v7.49h-.28a1.45,1.45,0,0,0-1.44,1.46V20a13.4,13.4,0,0,0-1.31.34l-.61-1.06a1.43,1.43,0,0,0-2-.52l-1.79,1a1.42,1.42,0,0,0-.53,2l.61,1.06c-.34.31-.65.63-1,1L6.53,23.2a1.42,1.42,0,0,0-2,.52l-1,1.78a1.45,1.45,0,0,0,.53,2l1.06.63a10,10,0,0,0-.35,1.28H3.56A1.45,1.45,0,0,0,2.1,30.82v2.07a1.46,1.46,0,0,0,1.45,1.46H4.77a11,11,0,0,0,.35,1.28l-1.06.61a1.52,1.52,0,0,0-.67.9,1.44,1.44,0,0,0,.15,1.08l1,1.8a1.57,1.57,0,0,0,.88.67,1.43,1.43,0,0,0,1.09-.16l1.06-.61a11.19,11.19,0,0,0,1,.94l-.61,1.06a1.44,1.44,0,0,0,.53,2l1.79,1a1.44,1.44,0,0,0,2-.52l.61-1.06a13.4,13.4,0,0,0,1.31.34v1.21a1.43,1.43,0,0,0,1.44,1.44h.28v7.51a.77.77,0,0,0,.75.76H51.35a.77.77,0,0,0,.75-.76V18.3A.12.12,0,0,0,52.09,18.25Zm-8.41-6.56,5.83,5.85H43.68Zm-28,33.17V43.08a.74.74,0,0,0-.64-.74,9.87,9.87,0,0,1-2.25-.61.76.76,0,0,0-.92.31L11,43.59l-1.66-1,.89-1.53a.78.78,0,0,0-.18-1,9.75,9.75,0,0,1-1.64-1.62.76.76,0,0,0-1-.18l-1.55.88-1-1.66,1.54-.88a.78.78,0,0,0,.33-.94,10.59,10.59,0,0,1-.6-2.23.76.76,0,0,0-.75-.65H3.62V30.91H5.4a.78.78,0,0,0,.75-.65A10.73,10.73,0,0,1,6.75,28a.76.76,0,0,0-.33-.92l-1.54-.88,1-1.66,1.55.88a.76.76,0,0,0,1-.18A10.75,10.75,0,0,1,10,23.6a.74.74,0,0,0,.18-1l-.89-1.55L11,20.14l.89,1.53a.74.74,0,0,0,.92.34A10,10,0,0,1,15,21.4a.74.74,0,0,0,.64-.74V18.88h1.92v1.78a.74.74,0,0,0,.64.74,9.9,9.9,0,0,1,2.24.61.75.75,0,0,0,.93-.34l.89-1.53,1.66.94-.89,1.55a.74.74,0,0,0,.18,1,10.75,10.75,0,0,1,1.64,1.64.73.73,0,0,0,1,.18l1.54-.88,1,1.66-1.54.88a.74.74,0,0,0-.33.92,10.73,10.73,0,0,1,.6,2.25.77.77,0,0,0,.75.65h1.78v1.91H27.83a.75.75,0,0,0-.75.65,10.23,10.23,0,0,1-.6,2.23.76.76,0,0,0,.33.94l1.54.88-1,1.66-1.54-.88a.76.76,0,0,0-1,.18,9.75,9.75,0,0,1-1.64,1.62.78.78,0,0,0-.18,1l.89,1.53-1.66,1L21.39,42a.77.77,0,0,0-.93-.31,9.74,9.74,0,0,1-2.24.61.74.74,0,0,0-.64.74v1.78ZM50.6,53.11H17.37V46.36h.27a1.44,1.44,0,0,0,1.45-1.44V43.71a13.18,13.18,0,0,0,1.29-.34L21,44.43a1.44,1.44,0,0,0,2,.52l1.79-1a1.45,1.45,0,0,0,.53-2l-.61-1.06a9.62,9.62,0,0,0,.94-.94l1.06.61a1.45,1.45,0,0,0,2-.52l1-1.8a1.46,1.46,0,0,0-.53-2l-1.06-.61a13.23,13.23,0,0,0,.35-1.28h1.21a1.46,1.46,0,0,0,1.45-1.46V30.82a1.45,1.45,0,0,0-1.45-1.44H28.46a11.78,11.78,0,0,0-.35-1.28l1.06-.63a1.45,1.45,0,0,0,.53-2l-1-1.78a1.43,1.43,0,0,0-2-.52l-1.06.61a12.43,12.43,0,0,0-.94-1l.61-1.06a1.43,1.43,0,0,0-.53-2l-1.79-1a1.44,1.44,0,0,0-2,.52l-.61,1.06A13.18,13.18,0,0,0,19.09,20V18.82a1.46,1.46,0,0,0-1.45-1.46h-.27V10.63H42.17V18.3a.75.75,0,0,0,.76.74H50.6Z"/><path class="cls-3" d="M38.61,22.73a.76.76,0,0,0,.75.76h7.77a.75.75,0,1,0,0-1.51H39.37A.75.75,0,0,0,38.61,22.73Z"/><path class="cls-3" d="M47.14,27.2H39.37a.75.75,0,1,0,0,1.51h7.77a.75.75,0,1,0,0-1.51Z"/><path class="cls-3" d="M47.14,32.42H39.37a.75.75,0,1,0,0,1.51h7.77a.75.75,0,1,0,0-1.51Z"/><path class="cls-3" d="M47.14,37.63H39.37a.75.75,0,0,0,0,1.51h7.77a.75.75,0,1,0,0-1.51Z"/><path class="cls-3" d="M31.8,23.49h4a.75.75,0,1,0,0-1.51h-4a.75.75,0,1,0,0,1.51Z"/><path class="cls-3" d="M35.78,27.2H34.07a.75.75,0,1,0,0,1.51h1.71a.75.75,0,1,0,0-1.51Z"/><path class="cls-3" d="M35.78,32.42h-1a.75.75,0,1,0,0,1.51h1a.75.75,0,1,0,0-1.51Z"/><path class="cls-3" d="M35.78,37.63H33.31a.75.75,0,0,0,0,1.51h2.47a.75.75,0,0,0,0-1.51Z"/><path class="cls-2" d="M23.56,31.86a6.94,6.94,0,1,0-6.95,6.95A6.94,6.94,0,0,0,23.56,31.86Zm-7.7,5.37a5.41,5.41,0,0,1,0-10.73Zm1.52,0V26.5a5.42,5.42,0,0,1,0,10.73Z"/></g></svg>