<svg xmlns="http://www.w3.org/2000/svg" viewBox="0 0 60 60"><defs><style>.cls-1{fill:#0050c8;}.cls-2{fill:#f39237;}.cls-3{fill:#fff782;}</style></defs><title>icone-inovacao</title><g id="Layer_4" data-name="Layer 4"><g id="Layer_5" data-name="Layer 5"><path class="cls-1" d="M13.72,4.86a1.07,1.07,0,0,0-.26,1l1.26,7,6.85-6L14.78,4.75A1.07,1.07,0,0,0,13.72,4.86Z"/><path class="cls-2" d="M24.79,21.67a.61.61,0,0,1-.61-.59l-.25-5.61a.61.61,0,0,1,.58-.64.62.62,0,0,1,.64.58L25.4,21a.61.61,0,0,1-.58.64Zm-.25-6.29s-.07,0-.06.07h0l.25,5.61a.07.07,0,0,0,.07.06l.33-.08h-.27l-.25-5.61A.06.06,0,0,0,24.54,15.38Z"/><path class="cls-2" d="M26.85,21.81a.61.61,0,0,1-.61-.58L26,15.61a.61.61,0,1,1,1.22-.05l.24,5.61a.61.61,0,0,1-.58.64Zm-.25-6.29a.06.06,0,0,0-.06.07h0l.24,5.62s0,.08.07.06h0l.06-.07-.24-5.61A.07.07,0,0,0,26.61,15.52Z"/><path class="cls-2" d="M25.75,25.24a6.87,6.87,0,1,1,4.51-1.68A6.87,6.87,0,0,1,25.75,25.24Zm0-12.67A5.74,5.74,0,0,0,22,14h0a5.79,5.79,0,1,0,4.2-1.4Z"/><path class="cls-1" d="M47.46,20.82a1.31,1.31,0,0,0-.66-.41l-7.28-1.93a1.27,1.27,0,0,0-.46,0c-.59-.76-1.14-1.44-1.69-2.07l-.78-.9c-1.2-1.39-2.34-2.7-3.41-3.87-.19-.26-.36-.48-.54-.68a11.11,11.11,0,0,0-2.28-2,10.33,10.33,0,0,0-5-1.56l-2.63-.2L14.9,14l-.19,3a10.29,10.29,0,0,0,.87,4.76c.08.18.17.36.27.54a10.43,10.43,0,0,0,1.35,2l.21.25a8.33,8.33,0,0,0,.63.72c.81,1,1.63,1.92,2.5,2.9l1.4,1.59c.56.64,1.16,1.29,1.83,2a1.34,1.34,0,0,0,0,.41l.89,7.47a1.31,1.31,0,0,0,.31.71l9.12,10.55a1.34,1.34,0,0,0,1.65.27l.21-.14a1.31,1.31,0,0,0,.43-1.25L34.28,39.57c3,1.34,5.66,1.65,7.73.93l3.28,2.21a1.12,1.12,0,0,0,1.63-1.42l-1.73-3.57c1-1.95,1-4.61.13-7.78l9.89,3.49a1.34,1.34,0,0,0,1.37-.31l.16-.19a1.31,1.31,0,0,0-.1-1.6Zm-5,18.29L37.33,35.3c-.41-.76-2.69-5.22-4.29-8.37l7.44,5.27L43.78,38,45.19,41ZM43,27.65l.59,1.63.12.33a11.54,11.54,0,0,1,.57,6.52L41.7,31.5a1.27,1.27,0,0,0-.38-.42l-7.74-5.49a1.32,1.32,0,0,0-1.93,1.67c4.53,8.93,4.56,9,4.74,9.09l4.16,3.09A11.53,11.53,0,0,1,34.13,38L32.33,37l2.57,12.75L26,39.51l-.91-7.4.44-.49-.46-.47c-.79-.8-1.48-1.53-2.11-2.26l-1.41-1.6c-.85-1-1.66-1.87-2.52-2.91a7.79,7.79,0,0,1-.58-.66l-.23-.28a9,9,0,0,1-1.17-1.73c-.08-.15-.16-.3-.23-.46A9,9,0,0,1,16.1,17l.15-2.33,7-6,2.13.16a8.85,8.85,0,0,1,4.27,1.34,9.11,9.11,0,0,1,.88.64,8.83,8.83,0,0,1,1.09,1c.15.17.3.36.51.64,1.12,1.22,2.25,2.52,3.44,3.9l.78.9c.62.71,1.25,1.5,1.94,2.4l.35.57.56-.43,7.23,1.9,9,10.26Z"/></g><path class="cls-3" d="M24.63,39.67l-.89-7.47a1.34,1.34,0,0,1,0-.41c-.67-.69-1.28-1.34-1.83-2l-1.4-1.59L20.34,28A16.18,16.18,0,1,0,31.7,48.2l-6.77-7.82A1.31,1.31,0,0,1,24.63,39.67Z"/></g></svg>