<svg xmlns="http://www.w3.org/2000/svg" viewBox="0 0 60 60"><defs><style>.cls-1{fill:#fff782;}.cls-2{fill:#f39237;}.cls-3{fill:#0050c8;}</style></defs><title>icone-escola-de-lideres</title><g id="Layer_4" data-name="Layer 4"><circle class="cls-1" cx="16.18" cy="43.82" r="16.18"/><path class="cls-2" d="M36.43,43.79A2.54,2.54,0,0,0,39,41.25V31.64a4.36,4.36,0,0,0-4.35-4.35H25.38A4.36,4.36,0,0,0,21,31.64v1.94a.73.73,0,1,0,1.45,0V31.64a2.9,2.9,0,0,1,2.9-2.9h9.23a2.9,2.9,0,0,1,2.9,2.9v9.61a1.09,1.09,0,1,1-2.17,0v-9a.73.73,0,1,0-1.46,0v8.26H26.11V32.27a.73.73,0,1,0-1.45,0v9a1.09,1.09,0,1,1-2.17,0V38.43a.73.73,0,1,0-1.45,0v2.82a2.54,2.54,0,0,0,2.54,2.54,2.48,2.48,0,0,0,1.09-.25v2.35a.73.73,0,1,0,1.45,0V42H34A2.53,2.53,0,0,0,36.43,43.79Z"/><path class="cls-3" d="M44.72,50.37,35,45.24a.73.73,0,0,0-.68,1.29L44,51.66a.73.73,0,0,0,.68-1.29Z"/><path class="cls-3" d="M54,23.43a.73.73,0,0,0-.59-.5l-7.77-1.13a.73.73,0,0,0-.21,1.44l6.31.92L43,32.7a5.58,5.58,0,0,0-1.6,4.94l1.59,9.25a.73.73,0,0,0,.72.6h.12a.73.73,0,0,0,.59-.84l-1.59-9.25A4.13,4.13,0,0,1,44,33.74l9.81-9.56A.73.73,0,0,0,54,23.43Z"/><path class="cls-3" d="M24.59,19.36,30,8.39l5.41,11a5.58,5.58,0,0,0,4.2,3l2,.29a.73.73,0,0,0,.21-1.44l-2-.29a4.12,4.12,0,0,1-3.1-2.25L30.65,6.43a.76.76,0,0,0-1.3,0L23.28,18.71A4.12,4.12,0,0,1,20.18,21l-13.56,2a.73.73,0,0,0,.1,1.45h.11l13.56-2A5.58,5.58,0,0,0,24.59,19.36Z"/><path class="cls-3" d="M22.14,46.76l-5.56,2.92,2.07-12.05A5.57,5.57,0,0,0,17,32.7L10.21,26a.73.73,0,0,0-1,1L16,33.74a4.12,4.12,0,0,1,1.19,3.65L14.9,50.89a.73.73,0,0,0,1.06.77l6.87-3.61a.73.73,0,0,0-.68-1.29Z"/><path class="cls-2" d="M32.7,23.67a.73.73,0,0,0,.94-.41A3.9,3.9,0,1,0,30,25.74a.73.73,0,0,0,0-1.45,2.45,2.45,0,1,1,2.28-1.56A.73.73,0,0,0,32.7,23.67Z"/><path class="cls-2" d="M30.73,37.44V30.92a.73.73,0,1,0-1.45,0v6.52a.73.73,0,1,0,1.45,0Z"/></g></svg>