<svg xmlns="http://www.w3.org/2000/svg" viewBox="0 0 60 60"><defs><style>.cls-1{fill:#fff782;}.cls-2{fill:#0050c8;}.cls-3{fill:#f39237;}</style></defs><title>icone-pessoas</title><g id="Layer_4" data-name="Layer 4"><circle class="cls-1" cx="16.18" cy="43.82" r="16.18"/><path class="cls-2" d="M44.79,43.11a.73.73,0,0,0,.73-.73v-.67A4.13,4.13,0,0,0,43.05,38a18.93,18.93,0,0,0-2.65-1c-.39-.12-.78-.22-1.18-.32a2.64,2.64,0,0,1-2-1.92v-.08a6.86,6.86,0,0,0,2.1-5,5.46,5.46,0,1,0-10.91,0,6.86,6.86,0,0,0,2.09,5c0,.06,0,.11,0,.15a2.55,2.55,0,0,1-2,1.85c-.4.1-.79.2-1.18.32a18.52,18.52,0,0,0-2.65,1,4.13,4.13,0,0,0-2.46,3.71v.67a.73.73,0,1,0,1.46,0v-.67a2.69,2.69,0,0,1,1.62-2.39,17.2,17.2,0,0,1,2.44-.92l1-.28c.58,1.67,2.63,2.9,5.07,2.9s4.49-1.24,5.07-2.9l1,.28a17.11,17.11,0,0,1,2.44.92,2.69,2.69,0,0,1,1.63,2.4v.67A.73.73,0,0,0,44.79,43.11ZM29.88,29.65a3.85,3.85,0,0,1,4-4.2,3.85,3.85,0,0,1,4,4.2c0,2.74-1.79,5-4,5S29.88,32.38,29.88,29.65Zm4,9.93c-2,0-3.42-1-3.73-2a3.89,3.89,0,0,0,1.63-2,4.69,4.69,0,0,0,4.2,0,3.92,3.92,0,0,0,1.63,2C37.31,38.57,35.87,39.57,33.88,39.57Z"/><path class="cls-3" d="M16.76,45.91c-3.49-1.17-5.75-2.78-6.28-4.4h2.06a.73.73,0,0,0,0-1.45H10.49a3.46,3.46,0,0,1,.68-1.19.73.73,0,1,0-1.11-.94A4.7,4.7,0,0,0,9,40.05H6.73a.73.73,0,1,0,0,1.45H9c.45,2.3,3,4.33,7.31,5.78a.74.74,0,0,0,.23,0,.73.73,0,0,0,.23-1.42Z"/><path class="cls-3" d="M53.27,40.05H51c-.53-2.71-4-5-9.68-6.47A.73.73,0,1,0,41,35c4.76,1.19,7.91,3.08,8.54,5.06H47.45a.73.73,0,1,0,0,1.45h2.05c-1,3.09-8.27,6.15-18.78,6.29V46.6a.73.73,0,0,0-1.45,0v1.2a47.86,47.86,0,0,1-8.65-.87.73.73,0,1,0-.29,1.43,49.24,49.24,0,0,0,8.94.9v1.23a.73.73,0,1,0,1.45,0V49.25c10.87-.14,19.4-3.44,20.27-7.74h2.27a.73.73,0,0,0,0-1.45Z"/><path class="cls-2" d="M27.64,16.95a.73.73,0,0,0,.51-.89,6,6,0,0,1-.21-1.6,3.85,3.85,0,0,1,4-4.2,3.85,3.85,0,0,1,4,4.2c0,2.61-1.64,4.79-3.75,5a.73.73,0,0,0,.06,1.45h.06A4.72,4.72,0,0,0,34,20.38a4.1,4.1,0,0,0,2.82,2.5l.1,0c.37.09.74.19,1.1.3a17,17,0,0,1,2.44.92,2.69,2.69,0,0,1,1.63,2.4v.67a.73.73,0,1,0,1.45,0v-.67a4.13,4.13,0,0,0-2.46-3.71,18.2,18.2,0,0,0-2.65-1c-.38-.11-.77-.22-1.16-.31h0a2.64,2.64,0,0,1-2-1.92s0-.05,0-.08a6.88,6.88,0,0,0,2.1-5,5.46,5.46,0,1,0-10.91,0,7.45,7.45,0,0,0,.27,2A.73.73,0,0,0,27.64,16.95Z"/><path class="cls-2" d="M24.61,35.22a6.57,6.57,0,0,0,2.92-.66.73.73,0,1,0-.65-1.3,5.12,5.12,0,0,1-2.27.51c-2,0-3.42-1-3.73-2a3.9,3.9,0,0,0,1.64-2,4.7,4.7,0,0,0,4.09,0A.73.73,0,0,0,26,28.49a3.29,3.29,0,0,1-1.39.31c-2.21,0-4-2.23-4-5a3.85,3.85,0,0,1,4-4.2,3.77,3.77,0,0,1,3.9,3.12.73.73,0,0,0,1.43-.29,5.22,5.22,0,0,0-5.32-4.29,5.32,5.32,0,0,0-5.45,5.66,6.86,6.86,0,0,0,2.09,5c0,.06,0,.11,0,.15a2.55,2.55,0,0,1-2,1.85c-.4.1-.79.2-1.18.32a18.53,18.53,0,0,0-2.65,1A4.13,4.13,0,0,0,13,35.91v.67a.73.73,0,1,0,1.45,0v-.67A2.69,2.69,0,0,1,16,33.52a17.45,17.45,0,0,1,2.44-.92l1-.28C20.11,34,22.16,35.22,24.61,35.22Z"/></g></svg>