<svg xmlns="http://www.w3.org/2000/svg" viewBox="0 0 60 60"><defs><style>.cls-1{fill:#fff782;}.cls-2{fill:#0050c8;}.cls-3{fill:#f39237;}</style></defs><title>icone-planejamento-e-projeto</title><g id="Layer_4" data-name="Layer 4"><circle class="cls-1" cx="16.18" cy="43.82" r="16.18"/><path class="cls-2" d="M39.79,48.85a.78.78,0,0,0-.78.79V50.8a2.2,2.2,0,0,1-2,2.34H8.19a2.2,2.2,0,0,1-2-2.34V12.53a2.19,2.19,0,0,1,2-2.34H14V11a2.33,2.33,0,0,0,2.34,2.34h12.5A2.34,2.34,0,0,0,31.19,11v-.76H37a2.19,2.19,0,0,1,2,2.34v1.16a.78.78,0,1,0,1.55,0V12.53A3.76,3.76,0,0,0,37,8.61H31.19V7.82A2.34,2.34,0,0,0,28.85,5.5H25.62a3.12,3.12,0,0,0-6.05,0H16.35A2.33,2.33,0,0,0,14,7.82v.79H8.19a3.75,3.75,0,0,0-3.56,3.92V50.8a3.76,3.76,0,0,0,3.56,3.92H37a3.76,3.76,0,0,0,3.56-3.92V49.64A.78.78,0,0,0,39.79,48.85Zm-24.23-41a.79.79,0,0,1,.79-.77h3.91A.78.78,0,0,0,21,6.27a1.57,1.57,0,0,1,3.13,0,.78.78,0,0,0,.78.79h3.91a.78.78,0,0,1,.78.77V11a.78.78,0,0,1-.78.79H16.35a.79.79,0,0,1-.79-.79Z"/><path class="cls-2" d="M17.12,26h5.79a.79.79,0,1,0,0-1.58H17.12a.79.79,0,0,0,0,1.58Z"/><path class="cls-2" d="M17.12,33h5a.79.79,0,0,0,0-1.58h-5a.79.79,0,0,0,0,1.58Z"/><path class="cls-2" d="M28.85,18.19a.78.78,0,0,0-.79-.79H17.12a.78.78,0,0,0-.78.79.79.79,0,0,0,.78.79H28.06A.8.8,0,0,0,28.85,18.19Z"/><path class="cls-2" d="M23.7,38.49H17.12a.79.79,0,0,0-.78.79.78.78,0,0,0,.78.79H23.7a.78.78,0,0,0,.78-.79A.8.8,0,0,0,23.7,38.49Z"/><path class="cls-2" d="M16.35,46.3a.78.78,0,0,0,.78.79h12a.78.78,0,1,0,0-1.56h-12A.78.78,0,0,0,16.35,46.3Z"/><path class="cls-3" d="M53.15,29.11H51.91a9.51,9.51,0,0,0-.36-1.3l1.08-.63a1.49,1.49,0,0,0,.55-2l-1.05-1.83a1.5,1.5,0,0,0-2-.56L49,23.41c-.3-.35-.63-.65-1-1l.61-1.07a1.47,1.47,0,0,0-.53-2l-1.83-1.07a1.51,1.51,0,0,0-2,.53l-.62,1.09c-.44-.14-.88-.25-1.32-.37V18.31a1.49,1.49,0,0,0-1.48-1.48H38.73a1.49,1.49,0,0,0-1.48,1.48v1.23c-.44.12-.88.23-1.32.37l-.62-1.09a1.51,1.51,0,0,0-2-.53l-1.83,1.07a1.48,1.48,0,0,0-.54,2l.63,1.07c-.34.33-.66.63-1,1l-1.08-.63a1.46,1.46,0,0,0-1.12-.14,1.48,1.48,0,0,0-.9.7L26.4,25.15a1.51,1.51,0,0,0-.15,1.14,1.54,1.54,0,0,0,.7.9l1.07.63a11.56,11.56,0,0,0-.35,1.3H26.42a1.51,1.51,0,0,0-1.48,1.51v2.11a1.49,1.49,0,0,0,1.48,1.48h1.24A13.53,13.53,0,0,0,28,35.54l-1.07.6a1.54,1.54,0,0,0-.7.9,1.5,1.5,0,0,0,.15,1.14L27.46,40a1.45,1.45,0,0,0,.9.67,1.37,1.37,0,0,0,1.12-.14l1.08-.63a10.67,10.67,0,0,0,1,1L30.9,42a1.51,1.51,0,0,0,.54,2l1.83,1a1.49,1.49,0,0,0,2-.53l.62-1.09a9.5,9.5,0,0,0,1.32.37V45a1.47,1.47,0,0,0,1.48,1.48h2.11A1.47,1.47,0,0,0,42.32,45V43.8a9.41,9.41,0,0,0,1.32-.37l.62,1.09a1.49,1.49,0,0,0,2,.53l1.83-1a1.49,1.49,0,0,0,.53-2L48,40.9a11,11,0,0,0,1-1l1.08.63a1.49,1.49,0,0,0,2-.53l1.05-1.83a1.51,1.51,0,0,0-.55-2l-1.08-.6a10.92,10.92,0,0,0,.36-1.32h1.24a1.49,1.49,0,0,0,1.48-1.48V30.62A1.51,1.51,0,0,0,53.15,29.11Zm-.08,3.53H51.26a.79.79,0,0,0-.78.67,10,10,0,0,1-.62,2.27.79.79,0,0,0,.35,1l1.57.9-1,1.69-1.57-.9a.78.78,0,0,0-1,.19,11,11,0,0,1-1.68,1.67.8.8,0,0,0-.19,1l.9,1.58-1.68,1-.9-1.58a.8.8,0,0,0-1-.32,11.38,11.38,0,0,1-2.29.6.8.8,0,0,0-.66.76V45H38.81V43.12a.8.8,0,0,0-.67-.76,11.51,11.51,0,0,1-2.29-.6.78.78,0,0,0-1,.32L34,43.66l-1.69-1,.92-1.58a.8.8,0,0,0-.19-1,11,11,0,0,1-1.68-1.67.78.78,0,0,0-1-.19l-1.58.9-1-1.69,1.57-.9a.8.8,0,0,0,.35-1,10.72,10.72,0,0,1-.63-2.27.76.76,0,0,0-.76-.67H26.51v-2h1.81a.76.76,0,0,0,.76-.67,10.76,10.76,0,0,1,.63-2.27.8.8,0,0,0-.35-1l-1.57-.9,1-1.69,1.58.9a.76.76,0,0,0,1-.19A11,11,0,0,1,33,23.22a.79.79,0,0,0,.19-1l-.92-1.58,1.69-1,.91,1.58a.75.75,0,0,0,1,.33,11.19,11.19,0,0,1,2.29-.6.8.8,0,0,0,.67-.77V18.4h1.95v1.81a.8.8,0,0,0,.66.77,11.08,11.08,0,0,1,2.29.6.77.77,0,0,0,1-.33l.9-1.58,1.68,1-.9,1.58a.79.79,0,0,0,.19,1,11,11,0,0,1,1.68,1.67.76.76,0,0,0,1,.19l1.57-.9,1,1.69-1.57.9a.79.79,0,0,0-.35,1A10.06,10.06,0,0,1,50.48,30a.79.79,0,0,0,.78.67h1.81Z"/><path class="cls-3" d="M14.21,23a.77.77,0,0,0-1.08.19L11.2,25.91,10.49,25a.77.77,0,0,0-1.1-.14.79.79,0,0,0-.15,1.09l1.36,1.78a.79.79,0,0,0,.62.3h0a.86.86,0,0,0,.64-.35l2.55-3.62A.78.78,0,0,0,14.21,23Z"/><path class="cls-3" d="M14.21,29.79a.79.79,0,0,0-1.08.19L11.2,32.73l-.71-.93a.81.81,0,0,0-1.1-.14.79.79,0,0,0-.15,1.09l1.36,1.79a.79.79,0,0,0,.62.3h0a.77.77,0,0,0,.64-.33l2.55-3.64A.79.79,0,0,0,14.21,29.79Z"/><path class="cls-3" d="M14.21,36.82a.79.79,0,0,0-1.08.19L11.2,39.79l-.71-.93a.78.78,0,1,0-1.25.93l1.36,1.79a.73.73,0,0,0,.62.3h0a.77.77,0,0,0,.64-.32l2.55-3.64A.79.79,0,0,0,14.21,36.82Z"/><path class="cls-3" d="M13.13,44.05,11.2,46.81l-.71-.93a.79.79,0,0,0-1.1-.16.81.81,0,0,0-.15,1.11l1.36,1.76a.82.82,0,0,0,.62.32h0a.86.86,0,0,0,.64-.35l2.55-3.64a.79.79,0,0,0-.2-1.09A.77.77,0,0,0,13.13,44.05Z"/><path class="cls-3" d="M39.79,24.24a7.42,7.42,0,1,0,7.42,7.42A7.44,7.44,0,0,0,39.79,24.24Zm0,13.29a5.86,5.86,0,1,1,5.86-5.87A5.86,5.86,0,0,1,39.79,37.53Z"/><path class="cls-2" d="M39.79,27.77a.76.76,0,0,0-.78.76V34.8a.78.78,0,1,0,1.55,0V28.53A.76.76,0,0,0,39.79,27.77Z"/></g></svg>