<svg xmlns="http://www.w3.org/2000/svg" viewBox="0 0 60 60"><defs><style>.cls-1{fill:#fff782;}.cls-2{fill:#f39237;}.cls-3{fill:#0050c8;}</style></defs><title>icone-demandas-customizadas</title><g id="Layer_4" data-name="Layer 4"><circle class="cls-1" cx="16.18" cy="43.82" r="16.18"/><path class="cls-2" d="M53.48,29.56a.73.73,0,0,0-1-.24l-6.32,3.85a.73.73,0,0,0,0,1.23A18.32,18.32,0,0,1,49.51,37a2.36,2.36,0,1,1-4,2.45,17.93,17.93,0,0,1-.79-4.22.73.73,0,0,0-1.1-.55l-6.34,3.86a.73.73,0,0,0-.24,1L40.27,45a12.94,12.94,0,0,0-3.69.86,3.81,3.81,0,0,0,4,6.52A13.22,13.22,0,0,0,43,49.46l3.26,5.36a.73.73,0,0,0,1,.24,18.56,18.56,0,0,0,6.21-25.5ZM47.13,53.43l-3.46-5.69a.73.73,0,0,0-.61-.35h0a.73.73,0,0,0-.61.33,18.39,18.39,0,0,1-2.65,3.37,2.36,2.36,0,1,1-2.45-4,18,18,0,0,1,4.22-.79.73.73,0,0,0,.55-1.1l-3.48-5.72,4.75-2.89a13,13,0,0,0,.86,3.69,3.81,3.81,0,0,0,6.52-4,13.2,13.2,0,0,0-2.87-2.47l4.72-2.87A17.13,17.13,0,0,1,47.13,53.43Z"/><path class="cls-3" d="M39.83,30.05a13.25,13.25,0,0,0-1.17-3.6h6.27a.73.73,0,0,0,.73-.73A18.56,18.56,0,1,0,27.11,44.29a.73.73,0,0,0,.73-.73v-7.4a.73.73,0,0,0-1-.66,18.39,18.39,0,0,1-4,1.5,2.36,2.36,0,1,1,0-4.72,17.94,17.94,0,0,1,4,1.52.73.73,0,0,0,1-.66V26.45h5.56a13,13,0,0,0-1.18,3.6,3.81,3.81,0,1,0,7.63,0ZM26.38,8.64v6.66a.72.72,0,0,0,.34.61l.17.08h0l.17,0h.18l.17-.06.79-.36,1-.41.71-.28c.35-.13.68-.25,1-.33a2.34,2.34,0,0,1,.57-.12,2.4,2.4,0,0,1,.7.1l.22.08a2.39,2.39,0,0,1,1.26,1.25c0,.07.06.15.08.22a2.37,2.37,0,0,1,.11.7,2.4,2.4,0,0,1,0,.48,2.36,2.36,0,0,1-.24.65,2.39,2.39,0,0,1-.22.33l-.19.22-.21.19-.25.17a2.35,2.35,0,0,1-1.2.33,18,18,0,0,1-4-1.52.73.73,0,0,0-1,.66V25H20.82A13,13,0,0,0,22,21.4a3.81,3.81,0,0,0-7.63,0A13.23,13.23,0,0,0,15.55,25H10A17.13,17.13,0,0,1,26.38,8.64Zm0,23.38a13,13,0,0,0-3.6-1.18,3.81,3.81,0,1,0,0,7.63,13.24,13.24,0,0,0,3.6-1.17v5.53A17.13,17.13,0,0,1,10,26.45h6.66a.73.73,0,0,0,.66-1,18.39,18.39,0,0,1-1.5-4,2.36,2.36,0,0,1,4.72,0,18,18,0,0,1-1.52,4,.73.73,0,0,0,.66,1h6.69Zm7.28-2a18,18,0,0,1,1.52-4,.73.73,0,0,0-.66-1H27.83V19.44a13,13,0,0,0,3.6,1.18,3.81,3.81,0,0,0,2.35-.82,3.52,3.52,0,0,0,.65-.65,3.73,3.73,0,0,0,.74-1.58,3.84,3.84,0,0,0-.1-1.91,3.61,3.61,0,0,0-.13-.35,3.85,3.85,0,0,0-2-2l-.35-.13A3.88,3.88,0,0,0,31.43,13a3.63,3.63,0,0,0-1,.17c-.33.09-.71.22-1.09.37l-.75.3-.79.33V8.64A17.13,17.13,0,0,1,44.19,25H37.54a.73.73,0,0,0-.66,1,18.37,18.37,0,0,1,1.5,4,2.36,2.36,0,1,1-4.72,0Z"/></g></svg>