<svg xmlns="http://www.w3.org/2000/svg" viewBox="0 0 60 60"><defs><style>.cls-1{fill:#fff782;}.cls-2{fill:#f39237;}.cls-3{fill:#0050c8;}</style></defs><title>icone-comunicacao</title><g id="Layer_4" data-name="Layer 4"><circle class="cls-1" cx="16.18" cy="43.82" r="16.18"/><path class="cls-2" d="M37.44,13.84c-1.24,1.77-5.81,5.83-10.63,9a.65.65,0,0,0,.7,1.1l0,0c4.48-3,9.5-7.29,11-9.38a.65.65,0,0,0-1.06-.75Z"/><path class="cls-3" d="M47,15.8c-1.51-2.5-4.17-3.73-6.19-3L37.61,7.54a1.94,1.94,0,0,0-3.54.51c-.77,2.92-5.16,9-11.37,12.72a.65.65,0,0,0-.22.89l.28.46L10.41,29.58a.65.65,0,0,0-.22.89l1.34,2.22L8.9,34.29a.65.65,0,0,0-.22.89L12,40.73a.65.65,0,0,0,.89.22l2.64-1.59,1.34,2.22a.65.65,0,0,0,.89.22l3.72-2.25L28.38,50.9a2.25,2.25,0,0,0,3.08.76l1.15-.7a2.25,2.25,0,0,0,.76-3.08l-1.69-2.8.55-.34a3.08,3.08,0,0,0,1-4.23L33,40a3.09,3.09,0,0,0-4.23-1l-.55.34-1.68-2.78,3.63-2.19.28.46a.65.65,0,0,0,.89.22c6.22-3.76,13.6-4.83,16.55-4.16a1.92,1.92,0,0,0,1.43-.22,2,2,0,0,0,.58-.53,1.92,1.92,0,0,0,.08-2.15l-3.18-5.27C48.36,21.23,48.5,18.31,47,15.8ZM28.9,40.38l.51-.31a1.79,1.79,0,0,1,2.45.61l.31.51a1.79,1.79,0,0,1-.6,2.45l-.51.31Zm-16.1-.88-2.68-4.44,2.08-1.26,2.68,4.44Zm19.46,9a1,1,0,0,1-.32,1.3l-1.15.7a1,1,0,0,1-1.3-.32L22.62,38.88,25.4,37.2Zm-7-12.8L21.4,38.1l-3.72,2.25-1.34-2.22L13,32.58l-1.34-2.22,11.79-7.13,6,10Zm23.55-7.14a.65.65,0,0,1-.7,1c-3.51-.8-10.88.51-16.95,4l-.28-.47L24.2,22l-.28-.47c5.9-3.75,10.48-9.67,11.41-13.15a.65.65,0,0,1,1.18-.17Zm-2.76-7.07-4.59-7.6c1.42-.35,3.27.67,4.39,2.53S47,20.44,46.07,21.54Z"/><path class="cls-2" d="M21.87,26.45l-6.66,4a.65.65,0,1,0,.67,1.11l6.66-4a.65.65,0,1,0-.67-1.11Z"/><path class="cls-2" d="M23.55,29.22l-6.66,4a.65.65,0,1,0,.67,1.11l6.66-4a.65.65,0,1,0-.67-1.11Z"/><path class="cls-2" d="M25.22,32l-6.66,4a.65.65,0,0,0,.67,1.11l6.66-4A.65.65,0,0,0,25.22,32Z"/></g></svg>