<svg xmlns="http://www.w3.org/2000/svg" viewBox="0 0 60 60"><defs><style>.cls-1{fill:#fff782;}.cls-2{fill:#0050c8;}</style></defs><title>icone-conhecimento-em-rede</title><g id="Layer_4" data-name="Layer 4"><circle class="cls-1" cx="16.18" cy="43.82" r="16.18"/><path class="cls-2" d="M43.86,30.15v1.53l4-2.3-4-2.3v1.53H30a.77.77,0,0,0,0,1.54H38c0,.14,0,.28,0,.42a14,14,0,0,1-1.83,6.93l0,0c-.46.79-1,1.6-1.46,2.4a37.1,37.1,0,0,0-2.23,3.89c-1.2,2.65-1.27,8-1.27,8.19a.77.77,0,0,0,.76.78h0a.77.77,0,0,0,.77-.76c0-.05.06-5.21,1.13-7.57A36.1,36.1,0,0,1,36,40.74c.5-.8,1-1.62,1.47-2.42l0,0a15.52,15.52,0,0,0,2.06-7.73c0-.14,0-.28,0-.42Z"/><path class="cls-2" d="M54.57,27.66a14.49,14.49,0,0,1-3-5,15.52,15.52,0,0,0-29-7.54,15.55,15.55,0,0,0-14,15.36,14.48,14.48,0,0,1-3,5,2.84,2.84,0,0,0-.76,2.2A2.13,2.13,0,0,0,5.8,39.16a25.18,25.18,0,0,0,2.69,1.31,20.85,20.85,0,0,0,0,5.22c.41,2.18,4,2.5,6.08,2.5.77,0,1.16.36,1.16,1.08V52a.77.77,0,1,0,1.54,0V49.27a2.51,2.51,0,0,0-2.7-2.61c-2.51,0-4.43-.53-4.57-1.25a21.88,21.88,0,0,1,.06-5.32.77.77,0,0,0-.48-.82,25.17,25.17,0,0,1-3-1.44c-.23-.13-.36-.27-.38-.42a1.41,1.41,0,0,1,.42-.95C9.46,33.08,10,30.81,10,30.72a.77.77,0,0,0,0-.16,14,14,0,0,1,25.39-8.1H26.86V20.93l-4,2.3,4,2.3V24H41.7a.77.77,0,0,0,0-1.54H37.22A15.57,15.57,0,0,0,24.34,15,14,14,0,0,1,50,22.75a.77.77,0,0,0,0,.16c0,.09.52,2.36,3.37,5.74a1.41,1.41,0,0,1,.42.95c0,.14-.15.28-.39.42a25.14,25.14,0,0,1-3,1.44.77.77,0,0,0-.48.82A21.94,21.94,0,0,1,50,37.59c-.14.73-2.06,1.25-4.57,1.25a2.52,2.52,0,0,0-2.7,2.61V44.2a.77.77,0,1,0,1.54,0V41.45c0-.71.39-1.08,1.16-1.08,2.09,0,5.66-.32,6.08-2.5a20.87,20.87,0,0,0,0-5.22,24.76,24.76,0,0,0,2.69-1.31,2.13,2.13,0,0,0,1.13-1.48A2.84,2.84,0,0,0,54.57,27.66Z"/></g></svg>