<svg xmlns="http://www.w3.org/2000/svg" viewBox="0 0 60 60"><defs><style>.cls-1{fill:#fff782;}.cls-2{fill:#f39237;}.cls-3{fill:#0050c8;}</style></defs><title>icone-base-legal</title><g id="Layer_4" data-name="Layer 4"><circle class="cls-1" cx="16.18" cy="43.82" r="16.18"/><path class="cls-2" d="M27.69,49.32V45.66a.77.77,0,0,0-.77-.77H11.55a.77.77,0,0,0-.77.77v3.66A5.18,5.18,0,0,0,5.72,54.5a.77.77,0,0,0,.77.76H32a.78.78,0,0,0,.76-.78A5.17,5.17,0,0,0,27.69,49.32ZM12.31,46.43H26.15v2.89H12.31Zm-5,7.31a3.65,3.65,0,0,1,3.56-2.89H27.58a3.64,3.64,0,0,1,3.56,2.89Z"/><path class="cls-3" d="M55,42.3,41.37,28.68a.76.76,0,0,0-1.08,0l-1.23,1.22-4.49-4.49,6.08-6.08a3,3,0,0,0,4-.24l1.55-1.55a3.07,3.07,0,0,0,0-4.34L38.62,5.6a3.14,3.14,0,0,0-4.33,0L32.74,7.15a3.06,3.06,0,0,0-.24,4L19.26,24.43a3.06,3.06,0,0,0-4,.24l-1.55,1.55a3.07,3.07,0,0,0,0,4.33l7.62,7.62a3.06,3.06,0,0,0,4.34,0l1.55-1.55a3.06,3.06,0,0,0,.24-4l6.08-6.08L38,31l-1.22,1.23a.76.76,0,0,0,0,1.08L50.36,46.91a2.53,2.53,0,0,0,3.57,0l1-1A2.53,2.53,0,0,0,55,42.3ZM33.82,8.23l1.55-1.55a1.54,1.54,0,0,1,2.17,0l7.62,7.62a1.53,1.53,0,0,1,0,2.17L43.61,18a1.57,1.57,0,0,1-2.17,0l-.28-.28L34.1,10.68l-.28-.28A1.53,1.53,0,0,1,33.82,8.23Zm-.26,4.07,6,6L26.35,31.47l-6-6ZM26.09,35.54l-1.55,1.55a1.57,1.57,0,0,1-2.17,0l-7.62-7.62a1.53,1.53,0,0,1,0-2.17l1.55-1.55a1.53,1.53,0,0,1,2.17,0l.28.28,7.07,7.07.28.28A1.54,1.54,0,0,1,26.09,35.54ZM53.9,44.79l-1,1a1,1,0,0,1-1.41,0L38.38,32.76l2.45-2.45L53.9,43.38A1,1,0,0,1,53.9,44.79Z"/></g></svg>