<svg xmlns="http://www.w3.org/2000/svg" viewBox="0 0 60 60"><defs><style>.cls-1{fill:#fff782;}.cls-2{fill:#0050c8;}</style></defs><title>icone-sustentabilidade</title><g id="Layer_4" data-name="Layer 4"><circle class="cls-1" cx="16.18" cy="43.82" r="16.18"/><circle class="cls-2" cx="9.87" cy="47.74" r="0.73"/><path class="cls-2" d="M39.79,29a10.13,10.13,0,0,0,1.35.09A7.33,7.33,0,0,0,45.28,28a6.76,6.76,0,0,0,2.74-5,25.12,25.12,0,0,1,5.79-12.4.73.73,0,0,0-.5-1.22c-.48,0-11.92-.53-16.93,5.81l0,0a11.56,11.56,0,0,0-1.06-2C31.46,7.22,21.54,6.76,21.12,6.74a.73.73,0,0,0-.62,1.15A22.33,22.33,0,0,1,24,18.77a6.07,6.07,0,0,0,2,4.65,7.12,7.12,0,0,0,4.53,1.49c0,.37,0,.74,0,1.12v1.73H24.36a18.25,18.25,0,0,1,.49-3.62.73.73,0,0,0-1.41-.34,19.75,19.75,0,0,0-.53,4H17a14.1,14.1,0,0,1,2.71-7.66,24.17,24.17,0,0,0,2.35.89.72.72,0,0,0,.22,0,.73.73,0,0,0,.22-1.42c-.64-.2-1.26-.43-1.85-.67a14.53,14.53,0,0,1,1.5-1.44.73.73,0,0,0-.93-1.12,15.92,15.92,0,0,0-2.32,2.39,15.73,15.73,0,0,0-1.63,16.92A.73.73,0,0,0,18.58,35,14.07,14.07,0,0,1,17,29.21H22.9a19.75,19.75,0,0,0,1.56,7,.65.65,0,0,0,.05.09h0a.72.72,0,0,0,.61.35h.15c.46-.09.92-.17,1.39-.24l.69-.09.62-.08,1.12-.1h.17l1.28-.06h0V40.2A7.43,7.43,0,0,1,27,39.06c-1.43-.85-3.06-1.81-11.17-2a3.41,3.41,0,0,0-2.25.8,1.45,1.45,0,0,0-1.29-.8H7.45A1.46,1.46,0,0,0,6,38.49V50.23a1.46,1.46,0,0,0,1.45,1.45h4.83a1.45,1.45,0,0,0,1.27-.76,3.39,3.39,0,0,0,1.27.66A51.42,51.42,0,0,0,27.7,53.26c7.14,0,15.65-1.63,23.13-7.5a3.93,3.93,0,0,0,1.73-2.56,2.19,2.19,0,0,0-.87-1.82A1.86,1.86,0,0,0,50.09,41a3,3,0,0,0-.6-1.66,2.72,2.72,0,0,0-2.19-1,11.87,11.87,0,0,0-3.65,1,39.9,39.9,0,0,1-5.6,1.8,3.45,3.45,0,0,0-2.32-.87c-1.51,0-2.72,0-3.71-.06V36.08a30.56,30.56,0,0,1,4.41.42c-.17.34-.35.68-.54,1a.73.73,0,1,0,1.26.73c.27-.47.52-1,.75-1.45a24.26,24.26,0,0,1,4.9,1.63.71.71,0,0,0,.31.07.72.72,0,0,0,.57-.28A15.66,15.66,0,0,0,47,29.85a.73.73,0,0,0-1.45-.12,14.21,14.21,0,0,1-2.66,7.14,26,26,0,0,0-4.39-1.44,19.33,19.33,0,0,0,1.13-4.79h0C39.64,30.11,39.71,29.57,39.79,29ZM12.28,50.23H7.45V38.49h4.83ZM46.57,22.74a5.38,5.38,0,0,1-2.11,4,6.6,6.6,0,0,1-4.42.83c1.08-5.28,4.18-12.24,10.9-15.74A25.18,25.18,0,0,0,46.57,22.74ZM37.52,16c2.9-3.67,8.47-4.8,12.13-5.13-6.64,3.76-9.81,10.7-11,16.1a8,8,0,0,1-3.24-4.51c0-.13,0-.27-.05-.41a6.78,6.78,0,0,0,1.26-2.25,6.25,6.25,0,0,0,.2-2.87C37.05,16.63,37.27,16.32,37.52,16ZM34.07,13.9c1.31,2,1.71,3.84,1.19,5.46a7.1,7.1,0,0,1-3.38,3.7c-.56-6.49-3-11.3-7.27-14.38C27.7,9.3,32,10.71,34.07,13.9Zm-7.13,8.42a4.69,4.69,0,0,1-1.48-3.59A23.16,23.16,0,0,0,23,9.34c4.5,2.84,7,7.49,7.46,14.12A5.65,5.65,0,0,1,26.95,22.31Zm3.62,6.9v5.42h-.07a31.91,31.91,0,0,0-4.79.48l-.12,0a18.37,18.37,0,0,1-1.21-5.92ZM44.17,40.8a11.23,11.23,0,0,1,3.14-.94,1.21,1.21,0,0,1,1,.43,1.68,1.68,0,0,1,.3,1.16c-.46.17-1,.39-1.53.62a52.32,52.32,0,0,1-8.23,2.81,2.57,2.57,0,0,0,.12-.62,4.71,4.71,0,0,0-.17-1.7A42.62,42.62,0,0,0,44.17,40.8Zm-8.4,1a1.92,1.92,0,0,1,1.31.5,2.33,2.33,0,0,1,.48,1.83c0,.2-.05.81-1.27,1.29h0c-1.3.5-4.18.92-10.46.08A.73.73,0,1,0,25.59,47a49,49,0,0,0,6.38.5,14.08,14.08,0,0,0,4.74-.63,52,52,0,0,0,11-3.44c1.36-.57,2.77-1.16,3.05-.92s.36.5.36.63c0,.54-.75,1.2-1.13,1.47-12.71,10-28.55,7.23-34.77,5.58a2,2,0,0,1-1.46-1.91l0-7.82a2,2,0,0,1,2-2h.05c7.73.2,9.18,1.06,10.46,1.82C27.68,41.17,28.92,41.91,35.77,41.82ZM37,35.12a32,32,0,0,0-5-.5V29.21h3.07a.73.73,0,1,0,0-1.45H32V26c0-.47,0-.93,0-1.38a11,11,0,0,0,2.17-1.37,9.91,9.91,0,0,0,4.23,5.27c-.11.68-.19,1.34-.23,1.94A17.83,17.83,0,0,1,37,35.12Z"/></g></svg>