<svg xmlns="http://www.w3.org/2000/svg" viewBox="0 0 60 60"><defs><style>.cls-1{fill:#fff782;}.cls-2{fill:#f39237;}.cls-3{fill:#0050c8;}.cls-4{fill:none;stroke:#0050c8;stroke-miterlimit:10;stroke-width:1.5px;}</style></defs><title>icone-orcamentos-e-financas</title><g id="Layer_4" data-name="Layer 4"><circle class="cls-1" cx="16.18" cy="43.82" r="16.18"/><path class="cls-2" d="M28.52,11.15c0-2.5-5-3.81-9.93-3.81S8.65,8.65,8.65,11.15v3.66h0v3.66h0v3.66h0V25.8h0v3.66h0v3.66c0,2.5,5,3.81,9.93,3.81s9.93-1.31,9.93-3.81V29.47h0V25.82h0V22.13h0V18.47h0V14.81h0ZM21,31.8l-1,.07h-.24l-1,0h-.33l-1,0h-.24l-1-.07h0a13.09,13.09,0,0,1-5.42-1.46c-.46-.3-.73-.61-.73-.86h0V27.84c1.71,1.1,5,1.78,8.55,1.78s6.84-.68,8.55-1.78v1.63h0c0,.24-.27.56-.73.86h0A13.08,13.08,0,0,1,21,31.79ZM10.62,13.5l.14.08h0c.23.11.49.22.79.33h0l0,0c.29.1.59.2.91.28l.11,0,.85.21.1,0h0l.09,0,1,.17.11,0,1.1.14h.24l1,.07h.26l1.2,0,1.21,0h0l.27,0h.05l.93-.07h.24l1.11-.14.17,0,1-.17h0l.11,0,.87-.21.09,0c.32-.09.62-.18.91-.28l0,0h0l.06,0c.24-.09.46-.18.69-.29l.1,0h0a6.23,6.23,0,0,0,.64-.36l.06,0v1.63h0c0,.25-.27.56-.73.86h0A13.08,13.08,0,0,1,21,17.13h0l-1,.07h-.24l-1,0h-.33l-1,0h-.23l-1-.07h0a13.1,13.1,0,0,1-5.42-1.46c-.46-.3-.73-.61-.73-.86h0V13.18l.09.05C10.27,13.33,10.44,13.41,10.62,13.5ZM27.14,25.79a.54.54,0,0,1,0,.16v0a.83.83,0,0,1-.08.14l0,.07-.11.12-.1.1-.18.14-.07,0-.27.16-.12.07a17.22,17.22,0,0,1-7.54,1.39A17.17,17.17,0,0,1,11,26.83l-.11-.06-.27-.17-.06,0-.19-.15-.1-.1-.11-.12,0-.07a.82.82,0,0,1-.08-.14.21.21,0,0,1,0,0,.51.51,0,0,1,0-.16V24.16a12.48,12.48,0,0,0,4.69,1.5h.06c.38.05.76.1,1.15.14l.22,0,.9.06.39,0,1,0h.28l1,0,.39,0,.9-.06.22,0c.39,0,.77-.09,1.15-.14h.07l1.1-.2h0a10.84,10.84,0,0,0,3.58-1.3Zm0-3.66h0c0,.24-.27.56-.73.86h0A13.12,13.12,0,0,1,21,24.45h0l-1,.07h-.23l-1,0h-.33l-1,0h-.23l-1-.07h0A13.14,13.14,0,0,1,10.77,23c-.46-.3-.73-.61-.73-.86h0V20.5a6.31,6.31,0,0,0,.68.38l.07,0a12.83,12.83,0,0,0,2.76.87l.17,0,.86.15.28,0,1,.12.51,0,.56,0,.61,0h2.08l.61,0,.56,0,.51,0,1-.12.28,0,.85-.15.18,0a12.81,12.81,0,0,0,2.76-.87l.08,0a6.38,6.38,0,0,0,.68-.38Zm0-3.66v0c0,.24-.27.55-.73.85h0a13,13,0,0,1-5.33,1.45l-.25,0-.73,0-.48,0H17.55l-.48,0-.72,0-.25,0a13,13,0,0,1-5.33-1.45c-.46-.3-.72-.6-.73-.85V16.84a12.4,12.4,0,0,0,4.69,1.5h.07l1.15.14.22,0,.9.07.39,0,1,0h.28l1,0,.39,0,.9-.07.22,0,1.15-.14h.07c.38-.06.75-.12,1.1-.2h0a10.8,10.8,0,0,0,3.58-1.3ZM18.59,8.72c5.22,0,8.55,1.44,8.55,2.43a.46.46,0,0,1,0,.17l0,0a1.15,1.15,0,0,1-.12.17l-.06.07-.13.13-.09.08-.25.18-.1.06a5.37,5.37,0,0,1-.53.29l-.36.15-.38.15-.5.16-.35.11-.46.11-.57.13h0l-.18,0-.89.15h-.06l-1,.12h-.14l-.94.07h-.2c-.75,0-1.54,0-2.29,0h-.22l-.81-.06h-.26l-1.06-.13h0l-1-.17-.11,0L13.41,13l-.46-.11-.36-.11-.49-.15-.34-.13-.41-.17a4.62,4.62,0,0,1-.56-.3l0,0-.28-.2,0,0-.17-.16,0-.05a1,1,0,0,1-.12-.18l0,0a.48.48,0,0,1,0-.17C10,10.16,13.37,8.72,18.59,8.72Zm0,26.84c-5.22,0-8.55-1.44-8.55-2.43V31.51a6.39,6.39,0,0,0,.71.39h0a12.78,12.78,0,0,0,2.87.91h0c.36.08.72.14,1.1.2h.07c.38.06.76.1,1.15.14l.22,0,.9.07.39,0,1,0h.28l1,0,.39,0,.9-.07.22,0c.39,0,.77-.09,1.14-.14h.07q.56-.08,1.09-.19h0a12.79,12.79,0,0,0,2.86-.91h0a6.48,6.48,0,0,0,.71-.39v1.62C27.14,34.12,23.81,35.56,18.59,35.56Z"/><path class="cls-2" d="M51.87,21.83c0-2.5-5-3.81-9.93-3.81S32,19.32,32,21.83v3.66h0v3.66h0V32.8h0v3.68h0v.16a8.15,8.15,0,1,0,8.92,10.93l1,0c4.94,0,9.93-1.31,9.93-3.81V40.15h0V36.49h0V32.8h0V29.14h0V25.48h0ZM33.31,51.46a6.77,6.77,0,1,1,6.77-6.78A6.78,6.78,0,0,1,33.31,51.46ZM50.49,43.8c0,1-3.33,2.43-8.55,2.43l-.62,0a8.1,8.1,0,0,0,.15-1.53c0-.25,0-.5,0-.74h.65l1,0,.39,0,.9-.06.23,0,1.14-.14h.07l1.1-.2h0a12.66,12.66,0,0,0,2.86-.91h0a6.62,6.62,0,0,0,.71-.39Zm0-3.66h0c0,.25-.27.56-.73.86h0a13.16,13.16,0,0,1-5.42,1.46h0l-1,.07h-.24l-1,0h-.93a8.12,8.12,0,0,0-1-2.33c.59,0,1.19.07,1.81.07,3.57,0,6.84-.68,8.55-1.78Zm0-3.69a.51.51,0,0,1,0,.16v0a.74.74,0,0,1-.08.14l0,.07-.11.12-.09.09-.19.15-.06,0-.27.17-.11.06a17.16,17.16,0,0,1-7.55,1.39,24.8,24.8,0,0,1-3.12-.19,8.11,8.11,0,0,0-5.42-2.16.36.36,0,0,1,0-.08V34.83a12.41,12.41,0,0,0,4.69,1.5h.06l1.15.14.22,0,.9.07.38,0,1,0h.28l1,0,.39,0,.9-.07.22,0,1.15-.14h.06a12.41,12.41,0,0,0,4.69-1.5Zm0-3.66h0c0,.24-.27.56-.73.85h0a13.1,13.1,0,0,1-5.42,1.46h0l-1,.07h-.23l-1,0h-.33l-1,0h-.23l-1-.07h0a13.1,13.1,0,0,1-5.42-1.46c-.46-.3-.73-.61-.73-.85h0V31.17a6.55,6.55,0,0,0,.68.38l.07,0a12.75,12.75,0,0,0,2.76.88l.17,0,.86.15.28,0,1,.12.51,0,.56,0,.61,0H43l.61,0,.56,0,.51,0,1-.12.28,0,.86-.15.17,0a12.68,12.68,0,0,0,2.76-.88l.07,0a6.67,6.67,0,0,0,.68-.38Zm0-3.66v0c0,.24-.27.55-.73.84h0a13,13,0,0,1-5.33,1.45l-.25,0-.73.05-.48,0H40.9l-.48,0-.73-.05-.25,0A13,13,0,0,1,34.12,30c-.46-.3-.72-.6-.73-.84V27.52a6.59,6.59,0,0,0,.71.39h0a12.68,12.68,0,0,0,2.86.91h0c.36.07.72.14,1.1.19h.07l1.14.14.23,0,.9.07.39,0,1,0h.28l1,0,.39,0,.9-.07.23,0L45.74,29h.07c.38-.06.74-.12,1.1-.19h0a12.64,12.64,0,0,0,2.86-.91h0a6.61,6.61,0,0,0,.71-.39Zm0-3.66h0c0,.24-.27.56-.73.86h0a13.13,13.13,0,0,1-5.42,1.46h0l-1,.07h-.24l-1,0h-.33l-1,0h-.24l-1-.07h0a13.13,13.13,0,0,1-5.42-1.46c-.46-.3-.73-.61-.73-.86h0V23.86l.09,0c.15.09.32.18.5.28l.13.07h0c.24.11.49.22.78.33H35c.29.11.59.2.91.29l.08,0,.88.22.1,0h0l.09,0,1,.17.11,0,1.1.14h.24l1,.07h.27c.4,0,.8,0,1.21,0s.81,0,1.21,0h.33l.93-.07h.24l1.1-.14.17,0,1-.17h0l.11,0c.31-.07.6-.14.89-.22l.07,0c.32-.09.63-.18.91-.29h0l.06,0c.24-.09.47-.19.7-.3l.08,0h0a6.91,6.91,0,0,0,.64-.36l.06,0Zm0-3.49,0,0a1,1,0,0,1-.11.17l-.06.07-.13.12-.09.08-.24.18-.1.06a5.14,5.14,0,0,1-.53.29l-.36.15-.38.15-.49.15-.35.11-.46.11-.56.13h0l-.17,0-.9.15H45.4l-1,.12h-.11l-1,.07h-.2c-.75,0-1.54,0-2.29,0h-.22l-.82-.06H39.5l-1-.12h-.1l-1-.17-.12,0-.55-.13-.47-.11-.36-.11-.49-.15-.36-.15L34.71,23a5.71,5.71,0,0,1-.56-.31l0,0a2.93,2.93,0,0,1-.28-.2l0,0-.17-.17,0,0a.91.91,0,0,1-.12-.18l0,0a.45.45,0,0,1,0-.17c0-1,3.33-2.43,8.55-2.43s8.55,1.44,8.55,2.43A.46.46,0,0,1,50.45,22Z"/><path class="cls-3" d="M33.31,41.92a1.14,1.14,0,0,1,1.21,1,.69.69,0,0,0,1.38,0A2.45,2.45,0,0,0,34,40.64v-.36a.69.69,0,0,0-1.38,0v.36A2.45,2.45,0,0,0,30.72,43a2.35,2.35,0,0,0,2.59,2.42c.83,0,1.21.33,1.21,1a1.23,1.23,0,0,1-2.43,0,.69.69,0,0,0-1.38,0,2.45,2.45,0,0,0,1.9,2.32v.36a.69.69,0,1,0,1.38,0v-.36a2.45,2.45,0,0,0,1.9-2.32A2.35,2.35,0,0,0,33.31,44c-.83,0-1.21-.33-1.21-1A1.14,1.14,0,0,1,33.31,41.92Z"/><circle class="cls-4" cx="33.31" cy="44.77" r="7.51"/></g></svg>