<svg xmlns="http://www.w3.org/2000/svg" viewBox="0 0 60 60"><defs><style>.cls-1{fill:#fff782;}.cls-2{fill:#f39237;}.cls-3{fill:#0050c8;}</style></defs><title>icone-gestao-publica</title><g id="Layer_4" data-name="Layer 4"><circle class="cls-1" cx="16.18" cy="43.82" r="16.18"/><path class="cls-2" d="M19.51,9.95a.73.73,0,0,0,.33-.08,22.44,22.44,0,0,1,4.4-1.67.73.73,0,0,0-.37-1.41,23.93,23.93,0,0,0-4.68,1.78.73.73,0,0,0,.33,1.38Z"/><path class="cls-2" d="M12,16a.73.73,0,0,0,.56-.27,22.72,22.72,0,0,1,3.34-3.32A.73.73,0,0,0,15,11.29a24.3,24.3,0,0,0-3.56,3.53.73.73,0,0,0,.1,1A.72.72,0,0,0,12,16Z"/><path class="cls-2" d="M52.49,31.3a22.63,22.63,0,0,1-.76,4.65.73.73,0,0,0,.51.89l.19,0a.73.73,0,0,0,.7-.54,24.2,24.2,0,0,0,.81-5l-.72-.11Z"/><path class="cls-2" d="M7.36,24.58l.19,0a.73.73,0,0,0,.7-.54A22.39,22.39,0,0,1,10,19.68.73.73,0,1,0,8.66,19a23.83,23.83,0,0,0-1.81,4.67A.73.73,0,0,0,7.36,24.58Z"/><path class="cls-2" d="M7,34.26h.11a.73.73,0,0,0,.61-.83A22.65,22.65,0,0,1,7.47,30q0-.64,0-1.29a.73.73,0,0,0-.69-.77.75.75,0,0,0-.77.69Q6,29.33,6,30a24.12,24.12,0,0,0,.28,3.63A.73.73,0,0,0,7,34.26Z"/><path class="cls-2" d="M52.27,26.51a.73.73,0,0,0,.72.62h.11a.72.72,0,0,0,.61-.83,24,24,0,0,0-1.28-4.85.73.73,0,0,0-1.36.52A22.39,22.39,0,0,1,52.27,26.51Z"/><path class="cls-2" d="M48.93,17.76A.73.73,0,1,0,50.15,17,24.29,24.29,0,0,0,47,13.07a.73.73,0,0,0-1,1A22.76,22.76,0,0,1,48.93,17.76Z"/><path class="cls-2" d="M28.89,7.48a23,23,0,0,1,4.7.26h.12a.73.73,0,0,0,.11-1.44,24.39,24.39,0,0,0-5-.28.73.73,0,1,0,.07,1.45Z"/><path class="cls-2" d="M38.14,9a22.52,22.52,0,0,1,4.19,2.15.73.73,0,0,0,.8-1.22,23.94,23.94,0,0,0-4.46-2.29A.73.73,0,0,0,38.14,9Z"/><path class="cls-3" d="M22.36,26.17a4.11,4.11,0,1,0-4.11-4.11A4.12,4.12,0,0,0,22.36,26.17Zm0-6.77a2.66,2.66,0,1,1-2.66,2.66A2.66,2.66,0,0,1,22.36,19.4Z"/><path class="cls-3" d="M32.42,18.49a4.42,4.42,0,1,0,4.42-4.42A4.42,4.42,0,0,0,32.42,18.49Zm4.42-3a3,3,0,1,1-3,3A3,3,0,0,1,36.84,15.53Z"/><path class="cls-3" d="M36.84,34a.73.73,0,0,0,.73-.73V30.58a.73.73,0,0,0-1.45,0v2.71A.73.73,0,0,0,36.84,34Z"/><path class="cls-3" d="M36.84,39.09a.73.73,0,0,0,.73-.73V36.91a.73.73,0,1,0-1.45,0v1.45A.73.73,0,0,0,36.84,39.09Z"/><path class="cls-3" d="M53.1,41.79a1.89,1.89,0,0,0-1.65-.36,3,3,0,0,0-.62-1.71,2.75,2.75,0,0,0-2.2-1h0a5.74,5.74,0,0,0-1.44.25V29.73a5,5,0,0,0-4.94-4.94H31.48a4.94,4.94,0,0,0-4.53,3h-9.5a4.6,4.6,0,0,0-4.59,4.59v5.2a2,2,0,0,0-1-.25H8.07A2.06,2.06,0,0,0,6,39.37v11a2.06,2.06,0,0,0,2.05,2.05h3.82a2.05,2.05,0,0,0,1.72-.93,3.49,3.49,0,0,0,1.49.82A53,53,0,0,0,28.37,54c7.36,0,16.13-1.68,23.84-7.73A4,4,0,0,0,54,43.64,2.23,2.23,0,0,0,53.1,41.79Zm-40.6,8.53a.6.6,0,0,1-.6.6H8.07a.6.6,0,0,1-.6-.6v-11a.6.6,0,0,1,.6-.6h3.82a.6.6,0,0,1,.6.6ZM48.6,40.18h0a1.29,1.29,0,0,1,1.07.45A1.74,1.74,0,0,1,50,41.85c-.47.18-1,.4-1.59.65a53.89,53.89,0,0,1-8.53,2.91,2.63,2.63,0,0,0,.13-.68,4.79,4.79,0,0,0-.19-1.79,44.47,44.47,0,0,0,5.52-1.8A11.66,11.66,0,0,1,48.6,40.18ZM28,29.73a3.49,3.49,0,0,1,3.49-3.49h4.64V27a.73.73,0,1,0,1.45,0v-.73H42.2a3.49,3.49,0,0,1,3.49,3.49v9.74l-.86.33-1.9.7v-10a.73.73,0,0,0-1.45,0V41c-.76.24-1.56.47-2.44.67a3.53,3.53,0,0,0-2.38-.9c-1.89,0-3.33,0-4.45-.1V30.46a.73.73,0,0,0-1.45,0v10A7.17,7.17,0,0,1,28,39.61ZM14.31,32.36a3.14,3.14,0,0,1,3.14-3.14h4.19v1.69a.73.73,0,0,0,1.45,0V29.22h3.5a4.91,4.91,0,0,0-.05.5V38.8c-1.3-.61-3.39-1.18-8.36-1.41V33a.73.73,0,0,0-1.45,0v4.3l-.6,0a3.36,3.36,0,0,0-1.81.46Zm37,12.74c-13.11,10.29-29.46,7.46-35.89,5.76a2,2,0,0,1-1.52-2l0-8.06a2.05,2.05,0,0,1,2-2h.05c8,.2,9.48,1.09,10.8,1.88,1.48.88,2.77,1.65,9.81,1.55a2,2,0,0,1,1.37.53,2.42,2.42,0,0,1,.5,1.91c0,.21-.06.85-1.32,1.35l0,0h0c-1.35.52-4.31,1-10.8.08a.73.73,0,1,0-.19,1.44,50.22,50.22,0,0,0,6.57.51,14.52,14.52,0,0,0,4.87-.65h0A53.51,53.51,0,0,0,49,43.84c1.48-.62,2.87-1.2,3.17-.94s.38.52.38.67C52.5,44.13,51.75,44.82,51.35,45.1Z"/></g></svg>