<svg xmlns="http://www.w3.org/2000/svg" xmlns:xlink="http://www.w3.org/1999/xlink" viewBox="0 0 60 60"><defs><style>.cls-1{fill:none;}.cls-2{fill:#ffff9f;}.cls-3{clip-path:url(#clip-path);}.cls-4{fill:#2482bc;}.cls-5{fill:#b0d4ed;}.cls-6{fill:#78b7e0;}</style><clipPath id="clip-path"><circle class="cls-1" cx="30" cy="30" r="29.47"/></clipPath></defs><title>icone-masculino</title><g id="Layer_4" data-name="Layer 4"><circle class="cls-2" cx="30" cy="30" r="29.47"/><g class="cls-3"><path class="cls-4" d="M20.17,27.48,16.3,29s-3.18,1-1.45,4.72,4.13,2.16,4.77,4.8.82,4.88,4.73,3-.62-6-.62-6Z"/><path class="cls-5" d="M33.05,16.11c-8,0-11,5.72-11.19,16.31-.06,4,1.73,7.89,3.16,10.4A7.85,7.85,0,0,1,25.77,49l-1.77,6c-1.2,5.54,1.43,8.58,5.32,9.69a7.56,7.56,0,0,0,5.91-1c2-1.29,2.16-4.07,1.79-6.42l-.46-1.7a4.24,4.24,0,0,1,3-5.28c6.19-1.35,7.08-7.81,8.74-17.83C50.08,22,41.09,16.11,33.05,16.11Z"/><path class="cls-6" d="M45.64,40a1.84,1.84,0,0,1-1.8,2.24h0A1.84,1.84,0,0,1,42,40.45V32.62a1.1,1.1,0,0,1,1.1-1.1.89.89,0,0,1,.87.7Z"/><path class="cls-5" d="M25.44,32c0,2.7-.91,4.89-3.28,4.89s-3.88-3.71-3.88-6.42,1.52-3.37,3.88-3.37S25.44,29.27,25.44,32Z"/><path class="cls-4" d="M31.44,4.92c5.56,0,5.38,9.46,10,5.48,2.56-2.19,10.87.47,8.36,4.11-3,4.36,2.9,4,2.6,8.63s-4.35,3.5-4.35,3.5c-.24-1-5.14-4.35-6.88-4.6-3-.42-5.8.9-8.91,2.06-6.44,2.39-6.74-.36-7,1.69-.14,1.14,1.26,3.89,1,5.28s-2.06,1.76-2.06,1.76l-1.4-4.21S20,27.35,18.48,29c0,0-2.66.4-3-4.24s5.77-1.28,1.42-8.21c-2-3.22-.7-10.48,5-8.17S25.88,4.92,31.44,4.92Z"/></g></g></svg>