<svg id="Camada_1" data-name="Camada 1" xmlns="http://www.w3.org/2000/svg" viewBox="0 0 218.41 258.99"><defs><style>.cls-1{fill:#fff;fill-rule:evenodd;}</style></defs><title>Prancheta 1</title><path class="cls-1" d="M194.09,37c3.67,0,5.5-.06,8.82-1.78a17.92,17.92,0,0,0,9-19.9A17.23,17.23,0,0,0,210.87,12a18.21,18.21,0,0,0-2.43-4c-.37-.42-.64-.79-1-1.19a17.45,17.45,0,0,0-11.7-5.19h-1.27a14.79,14.79,0,0,0-6,1.5c-.3.15-.4.18-.72.33a6.25,6.25,0,0,0-.66.38,16.45,16.45,0,0,0-4.13,3.31,5.74,5.74,0,0,1-.5.55,16.55,16.55,0,0,0-1.75,2.46,12.49,12.49,0,0,0-.76,1.46,15.79,15.79,0,0,0-1.14,3.21,15.62,15.62,0,0,0-.37,1.75,18.74,18.74,0,0,0,1,9.34,20.93,20.93,0,0,0,1.45,2.89c.19.32.22.32.42.64a6.23,6.23,0,0,0,.42.63,21.11,21.11,0,0,0,3.14,3.27c2.34,1.83,6,3.6,9.24,3.6"/><path class="cls-1" d="M194.66,127.31A16.37,16.37,0,0,0,205.25,124a17.94,17.94,0,0,0,5.68-21.51,15.06,15.06,0,0,0-1.45-2.76,11.21,11.21,0,0,0-.87-1.23c-3-3.61-7.62-6.55-12.46-6.55a16.2,16.2,0,0,0-8.21,1.7,18.16,18.16,0,0,0-4.88,3.6,18,18,0,0,0-4.78,11.29c0,.58-.12.57-.12,1.06l.16,2c.1.73.14,1.26.27,1.85a18.53,18.53,0,0,0,4.41,8.48c2.93,3,7.17,5.36,11.66,5.36"/><path class="cls-1" d="M137.25,109.29a18,18,0,0,0,1.54,7.65,15.86,15.86,0,0,0,1.49,2.73,16.93,16.93,0,0,0,13.48,7.63,16.45,16.45,0,0,0,8.06-1.74,16,16,0,0,0,5.33-4.21,17.06,17.06,0,0,0,4.19-9.65,7.93,7.93,0,0,0,.06-1,5.91,5.91,0,0,0,0-2,17.22,17.22,0,0,0-2.86-8.9,17.68,17.68,0,0,0-4.1-4.42,18.15,18.15,0,0,0-2.64-1.65,16.63,16.63,0,0,0-13.43-.66,9.47,9.47,0,0,0-1.43.66,17.8,17.8,0,0,0-9.7,15.57"/><path class="cls-1" d="M195.23,172.46A16.87,16.87,0,0,0,209.3,165l.8-1.31c.15-.27.22-.43.36-.69a18.14,18.14,0,0,0-2.82-20.4,16.73,16.73,0,0,0-4.73-3.64,17.17,17.17,0,0,0-6.64-1.78c-3.47,0-5.39.18-8.55,1.82a17.28,17.28,0,0,0-7.82,8.15,5.33,5.33,0,0,0-.34.83c-.12.33-.19.42-.3.75A18,18,0,0,0,178.7,159a17.74,17.74,0,0,0,3.56,7.23l2.12,2.19a16.57,16.57,0,0,0,10.85,4.06"/><path class="cls-1" d="M55.43,153.74c0,3.43.18,5.69,1.64,8.73A17.42,17.42,0,0,0,60,166.89l.57.6a17.28,17.28,0,0,0,4.92,3.45c11.26,5.17,24.08-3.27,24.08-16.14a17.93,17.93,0,0,0-4.78-12.24c-3-3-7.07-5.42-11.37-5.42-3.19,0-5.42.18-8.33,1.7a17.17,17.17,0,0,0-8,8.3,17.43,17.43,0,0,0-1.64,6.6"/><path class="cls-1" d="M194.32,82.14c3.37,0,5.38-.19,8.51-1.75l1.32-.76a17.62,17.62,0,0,0,8.27-15.27,18.27,18.27,0,0,0-5.53-12.88c-5.42-4.69-11.42-6.08-18.47-3.17a6.51,6.51,0,0,0-.7.34c-.33.18-.37.18-.67.37a19.27,19.27,0,0,0-4.25,3.42c-2.22,2.75-4,5.64-4.4,9.44-.07.63-.07,1.42-.17,2.07a18.15,18.15,0,0,0,.67,5.57,14.41,14.41,0,0,0,.59,1.64c.13.33.15.49.28.77l2,3.38a17.18,17.18,0,0,0,5.86,5,13.61,13.61,0,0,0,3,1.25,14.51,14.51,0,0,0,3.65.61"/><path class="cls-1" d="M137.25,154.45c0,13.17,12.51,21.64,24,16.53a17.62,17.62,0,0,0,10-13.58,18.25,18.25,0,0,0-1.06-9.3,17.39,17.39,0,0,0-1.46-2.87,17.18,17.18,0,0,0-9.74-7.47,16.93,16.93,0,0,0-18.74,7,18.51,18.51,0,0,0-3,9.69"/><path class="cls-1" d="M137.25,64.13a18.08,18.08,0,0,0,2.91,10.26,19.88,19.88,0,0,0,4,4.3A15.84,15.84,0,0,0,146,79.94a16.39,16.39,0,0,0,7.15,2.2c3.6,0,5.66-.2,8.78-1.82a16.68,16.68,0,0,0,4.88-3.72l.48-.58c.21-.25.26-.32.47-.59A17.49,17.49,0,0,0,171.12,68a20.3,20.3,0,0,0,.36-3.95c-.4-2.95-.24-3.93-1.61-7a16.34,16.34,0,0,0-3-4.52,3.42,3.42,0,0,0-.52-.64,20.69,20.69,0,0,0-5-3.5,16.93,16.93,0,0,0-21.79,7.17,17.83,17.83,0,0,0-2.37,8.57"/><path class="cls-1" d="M96.34,154.09a17.28,17.28,0,0,0,2.4,9.73,16.72,16.72,0,0,0,21.66,7.1,17,17,0,0,0,3.83-2.43,18,18,0,0,0,4.63-6.12,18.24,18.24,0,0,0-1.33-17.55c-.29-.44-.55-.8-.87-1.23a18,18,0,0,0-3.11-3.06c-2.44-1.76-6-3.39-9-3.39-4.85,0-7.16.58-11.07,3.25a17.68,17.68,0,0,0-6.14,8.35,16.16,16.16,0,0,0-1,5.35"/><path class="cls-1" d="M96.34,108.81a17.35,17.35,0,0,0,1,6.81,17.75,17.75,0,0,0,3,5.35l2,2.09a16.81,16.81,0,0,0,10.34,4.24,15.47,15.47,0,0,0,5.09-.54,15.85,15.85,0,0,0,4.38-1.87,20.25,20.25,0,0,0,3.49-2.79l.05-.06.05-.06.1-.13.76-.87c.34-.44.59-.74.9-1.21a13,13,0,0,0,.79-1.31,18.18,18.18,0,0,0,.75-16.15,17.13,17.13,0,0,0-3.9-5.56,15.47,15.47,0,0,0-2.92-2.31,15.18,15.18,0,0,0-4.37-1.88A16.77,16.77,0,0,0,99.5,99.4a17.07,17.07,0,0,0-2.61,5.72,16.88,16.88,0,0,0-.55,3.7"/><path class="cls-1" d="M171.74,205.06v52.27h4.93v-35.2c.76-.18.49,0,1.4.92,2.5,2.57,3.9,3.9,7.3,5.49a19.7,19.7,0,0,0,8.25,1.89,6.79,6.79,0,0,0,1.13.12c4.23-.31,7.39-.94,11.05-3a22.3,22.3,0,0,0,3-2.14,20.19,20.19,0,0,0,2.59-2.53,8.73,8.73,0,0,1,.62-.66l1.64-2.22a20.86,20.86,0,0,0,1.4-2.46,23.83,23.83,0,0,0,2.13-6.92,30.78,30.78,0,0,0,0-7.25,22.23,22.23,0,0,0-1-4.3,23,23,0,0,0-1.56-3.61,23.45,23.45,0,0,0-5.12-6.44,21.9,21.9,0,0,0-18.19-5.59,20.35,20.35,0,0,0-5.92,1.69,24.13,24.13,0,0,0-11.65,11.53,23.25,23.25,0,0,0-2,8.46m4.93,2.37a19.85,19.85,0,0,1,.45-5,20.35,20.35,0,0,1,1.08-3.27l1.54-2.8a19.75,19.75,0,0,1,2-2.44c3-3.12,7.3-5.6,11.78-5.6,3.79,0,6.12.25,9.44,2.09a20,20,0,0,1,4.29,3.27,4.75,4.75,0,0,1,.47.59,17,17,0,0,1,3.05,4.54,19.75,19.75,0,0,1,0,16c-4.82,9.92-15.79,13.31-25.1,8.1a19,19,0,0,1-8-9.78A18.5,18.5,0,0,1,176.67,207.43Z"/><path class="cls-1" d="M1,207.12v-.78c0-.1,0-.2,0-.3.4-3,0-3.32,1.24-7.13A25.14,25.14,0,0,1,4,195.1a16.2,16.2,0,0,1,1.08-1.73l1.18-1.62A22.25,22.25,0,0,1,8.94,189a20.72,20.72,0,0,1,8.82-5c.46-.12.59-.2,1.09-.29a25.75,25.75,0,0,1,8.58-.27,21.28,21.28,0,0,1,6.25,1.95l3.37,2.08a26.4,26.4,0,0,1,4.25,4,23.82,23.82,0,0,1,3.24,5.06c2.26,4.67,2.18,8,2.18,12.92h-40c-1.39,0,1.23,5.8,1.45,6.2a19.78,19.78,0,0,0,3.62,4.79c.24.23.33.26.57.48a17.14,17.14,0,0,0,3,2.21A17.76,17.76,0,0,0,40,215c.29-.58.26-1,.66-1h4.93c0,1.75-2.5,5.77-3.73,7.4-3,4-8.61,7.85-13.47,8.58-.8.12-1.65.31-2.4.37a23.27,23.27,0,0,1-5-.12,21.16,21.16,0,0,1-4.41-1,15,15,0,0,1-2-.79c-3.76-2-3.6-2.11-6.46-4.58l-.36-.34a23.84,23.84,0,0,1-4.3-6.1,22.54,22.54,0,0,1-2.33-8.74c0-.59-.08-1.08-.11-1.61m21.89-18.77c4.24,0,7.11.43,10.77,3a18.79,18.79,0,0,1,6.94,8.82c.14.37,1.57,4.1.39,4.1H6.85c-1.07,0-.18-2.41,0-3A18.33,18.33,0,0,1,11,194C14,190.89,18.32,188.35,22.89,188.35Z"/><path class="cls-1" d="M130.67,214.07H126c-.38,0-.32.29-.65,1-.22.47-.4.73-.61,1.14a18.17,18.17,0,0,1-4.89,5.61,20.4,20.4,0,0,1-4.4,2.44,17.48,17.48,0,0,1-16-1.94,25.7,25.7,0,0,1-2.31-1.88,10.33,10.33,0,0,1-1-1.06L94.29,217a18.46,18.46,0,0,1-2-4.3c-.16-.46-1.11-3.22-.21-3.22h40V205.3a22.86,22.86,0,0,0-2.2-8.86l-1.46-2.63c-3.33-4.87-7.77-8.51-13.52-10-2.76-.7-2.68-.37-4.85-.68a26.68,26.68,0,0,0-5,.37,20.88,20.88,0,0,0-9.48,4.3l-1.49,1.3a8,8,0,0,0-.68.6,25.52,25.52,0,0,0-4.21,5.6l-.88,1.82a25.49,25.49,0,0,0-1,16.6c1.29,4.52,3,6.58,5.62,9.59l.16.19.18.18.36.34a22.07,22.07,0,0,0,30.37.78,23.13,23.13,0,0,0,6.78-9.95c.15-.38.39-.81-.1-.81m-4.36-9.84H92.16c-1,0-.18-2.36,0-3a18.27,18.27,0,0,1,4.73-7.79,16.8,16.8,0,0,1,11.32-5.13c4.1,0,6.37.3,9.86,2.36a16,16,0,0,1,3.52,2.76,16.77,16.77,0,0,1,3.5,4.79,19.78,19.78,0,0,1,1.2,2.91C126.5,201.9,127.32,204.23,126.31,204.23Z"/><path class="cls-1" d="M54,195.34a11.66,11.66,0,0,0,1.84,7.23,15,15,0,0,0,1.07,1.5,11.86,11.86,0,0,0,5.32,3.62L65,208.81c.61.28,1.2.5,1.79.75l2.71,1.11a7.28,7.28,0,0,1,4.06,10A7.65,7.65,0,0,1,59,218.53a15.48,15.48,0,0,1,0-2.33c0-1.11.21-2.13-.34-2.13H54c0,3.43-.31,6.23,1.25,9.13a13.35,13.35,0,0,0,6.23,6.12,12.59,12.59,0,0,0,7.92.8c5.27-.88,9.69-6.4,9.69-12a12.22,12.22,0,0,0-2.75-8.42,11.32,11.32,0,0,0-2.66-2.46c-1.92-1.33-8.25-3.62-10.66-4.62a7.27,7.27,0,0,1-2.87-2.25,8.09,8.09,0,0,1-.56-7.61c1.15-2.33,3.48-4.38,6.31-4.38,1.93,0,3,0,4.7,1.18a8,8,0,0,1,2.27,2.27,6.16,6.16,0,0,1,.38.67,4.54,4.54,0,0,1,.37.8,9.89,9.89,0,0,1,.53,4.2c0,.4,0,.8,0,1.2s-.09.82.35.82h4.58c0-5.36.24-8.45-3.75-12.59a5.69,5.69,0,0,0-.78-.73c-.32-.24-.55-.46-.84-.68s-.63-.42-.91-.6a12.62,12.62,0,0,0-6.1-1.76,12.28,12.28,0,0,0-8.91,3.47A13,13,0,0,0,54,195.34"/><path class="cls-1" d="M139.34,195.46a12.06,12.06,0,0,0,2.88,8.52,13.42,13.42,0,0,0,6.16,4.06c1.2.44,2.38,1,3.6,1.49.64.26,1.2.5,1.81.73a10.24,10.24,0,0,1,4,2.38c1.39,1.64,1.72,2.88,1.72,5.34a7.59,7.59,0,0,1-.73,2.91c-.21.39-.43.74-.66,1.09a6.54,6.54,0,0,1-1.24,1.45,6.67,6.67,0,0,1-5.27,1.78,7.61,7.61,0,0,1-7.25-6.72l-.07-3.48c0-1.33.3-.94-4.93-.94,0,5.4-.28,8.38,3.81,12.65a12.94,12.94,0,0,0,3.67,2.6,12.46,12.46,0,0,0,13.86-2.42,13.12,13.12,0,0,0,3.75-8.56c0-3.83-.66-6.11-2.9-8.85s-5.51-3.82-8.89-5.15l-2.7-1.12a17.91,17.91,0,0,1-1.8-.74,7.28,7.28,0,0,1-2.77-2.35,7.14,7.14,0,0,1-1.11-4.3,7.78,7.78,0,0,1,2.54-5.55c2.1-1.74,3-1.91,5.83-1.91a7.18,7.18,0,0,1,3.33,1.18,7.54,7.54,0,0,1,2.26,2.28,7.19,7.19,0,0,1,1.24,3.34c.1.71,0,2.61,0,3.52,0,.44-.09.82.35.82h4.58c0-5.52.3-8.35-3.87-12.71a12.34,12.34,0,0,0-8.74-3.65,14.14,14.14,0,0,0-5.08,1,11.38,11.38,0,0,0-2.8,1.73,12.59,12.59,0,0,0-4.62,9.56"/></svg>