<svg xmlns="http://www.w3.org/2000/svg" xmlns:xlink="http://www.w3.org/1999/xlink" viewBox="0 0 68.77 139.85"><defs><style>.cls-1{isolation:isolate;}.cls-2{fill:#edae83;}.cls-3{fill:#c4831a;}.cls-4{fill:url(#Gradiente_sem_nome_14);}.cls-5{fill:#383838;opacity:0.4;mix-blend-mode:multiply;}.cls-6{fill:url(#Gradiente_sem_nome_14-2);}.cls-7{fill:#2482bc;}.cls-8{fill:#ffe29c;}.cls-9{fill:#ffe8b0;}.cls-10{fill:#fff4d9;}</style><linearGradient id="Gradiente_sem_nome_14" x1="6.51" y1="76.78" x2="48.54" y2="111.9" gradientUnits="userSpaceOnUse"><stop offset="0" stop-color="#ffc63a"/><stop offset="1" stop-color="#ffbe1d"/></linearGradient><linearGradient id="Gradiente_sem_nome_14-2" x1="11.75" y1="70.16" x2="53.98" y2="105.45" xlink:href="#Gradiente_sem_nome_14"/></defs><title>Menina pendurada</title><g class="cls-1"><g id="Layer_4" data-name="Layer 4"><g id="Layer_5" data-name="Layer 5"><path class="cls-2" d="M31.35,52.25s2.16,7,.68,11.72a34.61,34.61,0,0,1-3.32,7.61l1.11.51s7.07-4.26,8.7-9.12,0-11.76,0-11.76Z"/><path class="cls-3" d="M31.82,4.26C27,6.77,30.27,10.5,26.45,16.1a5.48,5.48,0,0,0,.66,7.24c3.51,3.68-.22,4.28,1,7.78,1.24,3.67,10.4,3.19,12.26-1.18C42.44,24.95,37.6,1.22,31.82,4.26Z"/><path class="cls-4" d="M37.35,72.35C22.42,77.69,16,87.66,16.85,98.47s4.35,24.28,3.63,27.64c0,0-5.21,8.06-3.58,9.49s8.43-10,9.18-12.62c1.64-5.62-2.44-24.1,1.64-28.38s22-17.1,38.53-18A31,31,0,0,0,37.35,72.35Z"/><path class="cls-5" d="M26.16,111.32c-.42-6.82-.84-14.22,1.56-16.73,4.08-4.28,22-17.1,38.53-18a31,31,0,0,0-28.89-4.21A38.93,38.93,0,0,0,23,81.21c-7,7.4,2.54,17.46,3.2,30.1Z"/><path class="cls-6" d="M66.24,76.56c0,14.36-7.5,13.31-20.16,13.31s-6.52,24.4,0,30.85c0,0,3.87,4.48-1.44,13.86s-1.84-9.51-1.84-9.51S25.48,107.89,25.38,92,46.08,71.41,46.08,71.41,66.24,67.26,66.24,76.56Z"/><path class="cls-7" d="M37.78,30.42C28,33.57,28.71,45.89,30,52a8,8,0,0,0,9-3.24C41.85,44.72,40.35,29.59,37.78,30.42Z"/><path class="cls-7" d="M37.78,30.42c-4.67,2.7-7,12.85-.42,25.07a17.56,17.56,0,0,1,0,16.86s12-4,28.89,4.21a104.37,104.37,0,0,0-3-25.72c-1.85-6.94-4.76-13.56-9.31-18.2-2.71-2.77-6.31-4.38-10.45-3.43Z"/><path class="cls-2" d="M35.91,20.92a18,18,0,0,1,1.87,9.63,2.59,2.59,0,0,0,.42,3c.59.07,1.34-1.68,3.53-2.11,4.36-.86.53-12.48.53-12.48Z"/><path class="cls-2" d="M28.68,12.35c-.44,3.63,1.6,10.55,3.93,12.49,4.45,3.7,9.25-2.32,10.19-6.72,0,0,2.3,1.43,3.17-3.38.49-2.7-.65-3.45-1.59-3.29a2.37,2.37,0,0,0-1.29.93S41.42,6,36.19,7.85,29.75,3.49,28.68,12.35Z"/><path class="cls-3" d="M33.39,4.47c-.26,0-7.38,1.06-6.15,9.17,0,0,4.59,2.43,12.87,0C40.12,13.65,40.36,4.62,33.39,4.47Z"/><polygon class="cls-8" points="33.52 70.05 60.43 69.92 42.16 77.73 15.26 77.87 33.52 70.05"/><polygon class="cls-9" points="42.16 77.73 15.2 77.73 2.09 59.34 3.48 58.48 29.65 58.48 42.16 77.73"/><polygon class="cls-10" points="40.98 77.73 15.22 77.73 2.09 59.34 29.02 59.34 40.98 77.73"/><rect class="cls-9" x="15.26" y="77.73" width="26.91" height="2.55"/><polygon class="cls-9" points="42.16 80.28 60.43 71.86 60.43 69.92 42.16 77.73 42.16 80.28"/><path class="cls-2" d="M50.66,31c-4.39.93-3.44,7.57,3.22,13.67s8.53,11.41,3.33,17.28c-2.72,3.08-15.32,7.84-15.79,11,0,0-.68,2.39,4.39,0s3.56-4.12,5.49-4.37c3.31-.43,13.57-5.72,14.94-10.05C69,50,58.69,29.28,50.66,31Z"/><path class="cls-7" d="M50.16,30.09c-6.64,2.33-1.35,12.2,6,18.57,0,0,4.51,1,8.27-5C64.42,43.67,57.46,27.54,50.16,30.09Z"/><path class="cls-3" d="M39.33,10.46c1.62,1.06,1.37,2.8,1.37,5.79s1.31,3,1.87,6-5.1,6.41-1.31,10.26,13.63.32,12.56-5.59c-.7-3.91-4.54-3.83-3-8.11,1.94-5.31-1.48-5.08-3.44-7.32-1.07-1.23-2.73-6.17-5.68-7.72A10.16,10.16,0,0,0,29.34,6.38Z"/></g></g></g></svg>