<svg xmlns="http://www.w3.org/2000/svg" viewBox="0 0 38.75 49.09"><defs><style>.cls-1,.cls-2{fill:#fff;}.cls-1{opacity:0.9;}</style></defs><title>Artboard 12 copy 16</title><g id="Layer_4" data-name="Layer 4"><g id="Layer_5" data-name="Layer 5"><path class="cls-1" d="M23.66,36.34c1.75-7.57.72-29.94,9.84-23.41,10,7.2-.46,21.15-1.43,25.35Z"/><path class="cls-2" d="M26.24,36.92c1.49-6.43,1-23.57,6.38-24.55-8.18-4.52-7.28,16.64-9,24Z"/><path class="cls-1" d="M22.88,39.7l8.41,1.94s-1.55,6.73-5.76,5.75S22.88,39.7,22.88,39.7Z"/><path class="cls-2" d="M25.52,40.32l-2.64-.62s-1.55,6.73,2.65,7.7a3.4,3.4,0,0,0,1.37,0C24.31,45.53,25.52,40.32,25.52,40.32Z"/><path class="cls-1" d="M15,26.08c-1.75-7.57-.72-29.94-9.84-23.41-10,7.2.46,21.15,1.43,25.35Z"/><path class="cls-2" d="M7.75,2.39A8,8,0,0,1,9,1.64c-1-.36-2.29-.08-3.85,1-10,7.2.46,21.15,1.43,25.35l2.51-.58C7.74,22.91-2.07,9.43,7.75,2.39Z"/><path class="cls-1" d="M15.77,29.44,7.37,31.39s1.55,6.73,5.76,5.75S15.77,29.44,15.77,29.44Z"/><path class="cls-2" d="M10.31,30.7l-2.95.68s1.55,6.73,5.76,5.75a3.32,3.32,0,0,0,1.53-.79C11.81,35.84,10.54,31.57,10.31,30.7Z"/><path class="cls-2" d="M34,12.32c-1.84-1.32-3.49-1.66-4.9-1-1.75.8-3,3-3.84,6.9a91.93,91.93,0,0,0-1.41,10.52,67.25,67.25,0,0,1-1,7.48.82.82,0,0,0,.61,1l8.41,1.94a.82.82,0,0,0,1-.61,23.5,23.5,0,0,1,1.56-3.66.81.81,0,0,0-1.46-.7c-.57,1.18-1.11,2.31-1.44,3.22l-6.9-1.6c.35-1.85.58-4.31.83-6.9.6-6.24,1.41-14.79,4.3-16.1.85-.38,2-.1,3.28.86,6.15,4.41,4,11.6,1.4,17.37a.81.81,0,0,0,1.48.66C38.56,25.83,41.2,17.47,34,12.32Z"/><path class="cls-2" d="M31.52,40.91,23.11,39a.82.82,0,0,0-1,.61,13.85,13.85,0,0,0-.27,3.73c.26,3.47,2.06,4.6,3.53,4.94a4.46,4.46,0,0,0,1,.12c1.34,0,2.94-.64,4.33-3a13.84,13.84,0,0,0,1.39-3.47A.81.81,0,0,0,31.52,40.91Zm-5.76,5.75c-2.61-.6-2.41-4.28-2.18-5.93l6.74,1.56C29.8,43.87,28.37,47.26,25.76,46.66Z"/><path class="cls-2" d="M6.82,28.86l8.41-1.94a.82.82,0,0,0,.61-1,67.36,67.36,0,0,1-1-7.48A91.93,91.93,0,0,0,13.47,7.94C12.6,4,11.38,1.84,9.64,1c-1.41-.64-3.06-.3-4.9,1C1.07,4.7-.44,8.51.25,13.39c.57,4,2.54,8.09,4,11.06a24.11,24.11,0,0,1,1.63,3.81A.82.82,0,0,0,6.82,28.86ZM5.68,23.75C4.3,20.87,2.39,16.92,1.86,13.16c-.61-4.29.64-7.49,3.83-9.78C6.57,2.74,7.85,2,9,2.52c2.89,1.31,3.71,9.86,4.3,16.1.25,2.59.48,5,.83,6.9l-6.9,1.6C6.87,26.21,6.33,25.09,5.68,23.75Z"/><path class="cls-2" d="M16.26,28.81a.81.81,0,0,0-.61-.1L7.24,30.65a.81.81,0,0,0-.61,1A13.83,13.83,0,0,0,8,35.09c1.39,2.37,3,3,4.33,3a4.46,4.46,0,0,0,1-.12c1.46-.34,3.26-1.47,3.53-4.94a13.82,13.82,0,0,0-.27-3.73A.81.81,0,0,0,16.26,28.81ZM13,36.4C10.39,37,9,33.62,8.43,32l6.74-1.56C15.41,32.12,15.61,35.8,13,36.4Z"/></g></g></svg>